<?xml version="1.0" encoding="utf-8" standalone="no"?>
<!DOCTYPE svg PUBLIC "-//W3C//DTD SVG 1.1//EN"
  "http://www.w3.org/Graphics/SVG/1.1/DTD/svg11.dtd">
<svg xmlns:xlink="http://www.w3.org/1999/xlink" width="460.8pt" height="345.6pt" viewBox="0 0 460.8 345.6" xmlns="http://www.w3.org/2000/svg" version="1.1">
 <metadata>
  <rdf:RDF xmlns:dc="http://purl.org/dc/elements/1.1/" xmlns:cc="http://creativecommons.org/ns#" xmlns:rdf="http://www.w3.org/1999/02/22-rdf-syntax-ns#">
   <cc:Work>
    <dc:type rdf:resource="http://purl.org/dc/dcmitype/StillImage"/>
    <dc:date>2023-12-02T15:32:16.982375</dc:date>
    <dc:format>image/svg+xml</dc:format>
    <dc:creator>
     <cc:Agent>
      <dc:title>Matplotlib v3.8.2, https://matplotlib.org/</dc:title>
     </cc:Agent>
    </dc:creator>
   </cc:Work>
  </rdf:RDF>
 </metadata>
 <defs>
  <style type="text/css">*{stroke-linejoin: round; stroke-linecap: butt}</style>
 </defs>
 <g id="figure_1">
  <g id="patch_1">
   <path d="M 0 345.6 
L 460.8 345.6 
L 460.8 0 
L 0 0 
z
" style="fill: #ffffff"/>
  </g>
  <g id="axes_1">
   <g id="patch_2">
    <path d="M 57.6 307.584 
L 414.72 307.584 
L 414.72 41.472 
L 57.6 41.472 
z
" style="fill: #ffffff"/>
   </g>
   <g id="line2d_1">
    <path d="M 73.832727 288.57522 
L 75.198435 285.452086 
L 76.564143 282.415862 
L 77.929851 279.529881 
L 79.295558 276.839088 
L 80.661266 274.36855 
L 82.026974 272.12593 
L 83.392681 270.105949 
L 84.758389 268.295062 
L 86.124097 266.675345 
L 87.489805 265.227296 
L 88.855512 263.931613 
L 90.22122 262.770197 
L 91.586928 261.726636 
L 92.952636 260.786355 
L 94.318343 259.936577 
L 95.684051 259.166195 
L 97.049759 258.465596 
L 98.415467 257.826477 
L 99.781174 257.24167 
L 101.146882 256.704985 
L 102.51259 256.211067 
L 103.878298 255.755272 
L 105.244005 255.333567 
L 106.609713 254.942437 
L 107.975421 254.578809 
L 109.341129 254.239991 
L 110.706836 253.923619 
L 112.072544 253.627607 
L 113.438252 253.35011 
L 114.80396 253.089494 
L 116.169667 252.844305 
L 117.535375 252.613247 
L 118.901083 252.395162 
L 120.266791 252.189011 
L 121.632498 251.993862 
L 122.998206 251.808873 
L 124.363914 251.633288 
L 125.729622 251.466418 
L 127.095329 251.307642 
L 128.461037 251.156395 
L 129.826745 251.012162 
L 131.192453 250.874472 
L 132.55816 250.742898 
L 133.923868 250.617045 
L 135.289576 250.496553 
L 136.655284 250.381091 
L 138.020991 250.270355 
L 139.386699 250.164062 
L 140.752407 250.061954 
L 142.118115 249.963791 
L 143.483822 249.869351 
L 144.84953 249.778429 
L 146.215238 249.690832 
L 147.580945 249.606383 
L 148.946653 249.524918 
L 150.312361 249.446282 
L 151.678069 249.370332 
L 153.043776 249.296932 
L 154.409484 249.225959 
L 155.775192 249.157293 
L 157.1409 249.090826 
L 158.506607 249.026455 
L 159.872315 248.964081 
L 161.238023 248.903615 
L 162.603731 248.84497 
L 163.969438 248.788066 
L 165.335146 248.732828 
L 166.700854 248.679182 
L 168.066562 248.627063 
L 169.432269 248.576406 
L 170.797977 248.52715 
L 172.163685 248.479239 
L 173.529393 248.432618 
L 174.8951 248.387237 
L 176.260808 248.343046 
L 177.626516 248.300001 
L 178.992224 248.258056 
L 180.357931 248.217171 
L 181.723639 248.177305 
L 183.089347 248.138422 
L 184.455055 248.100486 
L 185.820762 248.063463 
L 187.18647 248.02732 
L 188.552178 247.992026 
L 189.917886 247.957553 
L 191.283593 247.92387 
L 192.649301 247.890953 
L 194.015009 247.858775 
L 195.380717 247.827312 
L 196.746424 247.79654 
L 198.112132 247.766437 
L 199.47784 247.73698 
L 200.843548 247.708151 
L 202.209255 247.679928 
L 203.574963 247.652294 
L 204.940671 247.625229 
L 206.306379 247.598717 
L 207.672086 247.572741 
L 209.037794 247.547284 
" clip-path="url(#p09fc470002)" style="fill: none; stroke: #1f77b4; stroke-width: 1.5; stroke-linecap: square"/>
   </g>
   <g id="line2d_2">
    <path d="M 209.037794 247.61017 
L 210.678049 247.702422 
L 212.318304 247.7963 
L 213.95856 247.89185 
L 215.598815 247.989114 
L 217.23907 248.08814 
L 218.879325 248.188977 
L 220.519581 248.291673 
L 222.159836 248.39628 
L 223.800091 248.502854 
L 225.440346 248.611448 
L 227.080602 248.722122 
L 228.720857 248.834935 
L 230.361112 248.94995 
L 232.001367 249.067232 
L 233.641622 249.186848 
L 235.281878 249.308869 
L 236.922133 249.433367 
L 238.562388 249.560419 
L 240.202643 249.690103 
L 241.842899 249.822503 
L 243.483154 249.957704 
L 245.123409 250.095796 
L 246.763664 250.236872 
L 248.403919 250.38103 
L 250.044175 250.528371 
L 251.68443 250.679002 
L 253.324685 250.833034 
L 254.96494 250.990583 
L 256.605196 251.15177 
L 258.245451 251.316722 
L 259.885706 251.485574 
L 261.525961 251.658463 
L 263.166217 251.835536 
L 264.806472 252.016946 
L 266.446727 252.202854 
L 268.086982 252.393428 
L 269.727237 252.588847 
L 271.367493 252.789295 
L 273.007748 252.994969 
L 274.648003 253.206075 
L 276.288258 253.42283 
L 277.928514 253.645463 
L 279.568769 253.874215 
L 281.209024 254.10934 
L 282.849279 254.351109 
L 284.489534 254.599803 
L 286.12979 254.855724 
L 287.770045 255.11919 
L 289.4103 255.390538 
L 291.050555 255.670124 
L 292.690811 255.958326 
L 294.331066 256.255548 
L 295.971321 256.562216 
L 297.611576 256.878785 
L 299.251831 257.205739 
L 300.892087 257.543594 
L 302.532342 257.8929 
L 304.172597 258.254245 
L 305.812852 258.628257 
L 307.453108 259.015609 
L 309.093363 259.417021 
L 310.733618 259.833265 
L 312.373873 260.265172 
L 314.014129 260.713635 
L 315.654384 261.179613 
L 317.294639 261.664144 
L 318.934894 262.168344 
L 320.575149 262.693424 
L 322.215405 263.240692 
L 323.85566 263.811567 
L 325.495915 264.40759 
L 327.13617 265.030438 
L 328.776426 265.681937 
L 330.416681 266.364081 
L 332.056936 267.079051 
L 333.697191 267.829233 
L 335.337446 268.617251 
L 336.977702 269.445986 
L 338.617957 270.318617 
L 340.258212 271.238654 
L 341.898467 272.209982 
L 343.538723 273.236913 
L 345.178978 274.324244 
L 346.819233 275.477323 
L 348.459488 276.702131 
L 350.099744 278.005373 
L 351.739999 279.394586 
L 353.380254 280.878269 
L 355.020509 282.466034 
L 356.660764 284.168782 
L 358.30102 285.99892 
L 359.941275 287.970607 
L 361.58153 290.100057 
L 363.221785 292.405897 
" clip-path="url(#p09fc470002)" style="fill: none; stroke: #1f77b4; stroke-width: 1.5; stroke-linecap: square"/>
   </g>
   <g id="line2d_3">
    <path d="M 364.328552 295.488 
L 366.547304 288.727629 
L 368.751673 281.288299 
L 370.948849 273.079356 
L 373.138833 264.024289 
L 375.321626 254.039314 
L 377.500822 243.013587 
L 379.676422 230.840686 
L 381.848426 217.403523 
L 384.016834 202.573297 
L 386.181646 186.208354 
L 388.346459 168.121351 
L 390.511271 148.13108 
L 392.672487 126.075824 
L 394.833703 101.703777 
L 396.994919 74.771571 
L 398.469293 54.792671 
L 398.469293 54.792671 
" clip-path="url(#p09fc470002)" style="fill: none; stroke: #1f77b4; stroke-width: 1.5; stroke-linecap: square"/>
   </g>
   <g id="PolyCollection_1"/>
   <g id="PolyCollection_2"/>
   <g id="PolyCollection_3"/>
   <g id="PathCollection_1">
    <defs>
     <path id="m07a7cf3b74" d="M 0 -3 
L -3 3 
L 3 3 
z
" style="stroke: #0000ff"/>
    </defs>
    <g clip-path="url(#p09fc470002)">
     <use xlink:href="#m07a7cf3b74" x="209.037794" y="247.22059" style="fill: #0000ff; stroke: #0000ff"/>
    </g>
   </g>
   <g id="PathCollection_2">
    <path d="M 346.67864 273.390018 
L 343.67864 279.390018 
L 349.67864 279.390018 
L 346.67864 273.390018 
z
" clip-path="url(#p09fc470002)" style="fill: none; stroke: #ff0000"/>
    <path d="M 345.905377 269.338709 
L 342.905377 275.338709 
L 348.905377 275.338709 
L 345.905377 269.338709 
z
" clip-path="url(#p09fc470002)" style="fill: none; stroke: #ff0000"/>
    <path d="M 338.172745 265.287399 
L 335.172745 271.287399 
L 341.172745 271.287399 
L 338.172745 265.287399 
z
" clip-path="url(#p09fc470002)" style="fill: none; stroke: #ff0000"/>
    <path d="M 330.440113 261.23609 
L 327.440113 267.23609 
L 333.440113 267.23609 
L 330.440113 261.23609 
z
" clip-path="url(#p09fc470002)" style="fill: none; stroke: #ff0000"/>
    <path d="M 318.841165 257.18478 
L 315.841165 263.18478 
L 321.841165 263.18478 
L 318.841165 257.18478 
z
" clip-path="url(#p09fc470002)" style="fill: none; stroke: #ff0000"/>
    <path d="M 318.841165 255.159126 
L 315.841165 261.159126 
L 321.841165 261.159126 
L 318.841165 255.159126 
z
" clip-path="url(#p09fc470002)" style="fill: none; stroke: #ff0000"/>
    <path d="M 318.841165 253.133471 
L 315.841165 259.133471 
L 321.841165 259.133471 
L 318.841165 253.133471 
z
" clip-path="url(#p09fc470002)" style="fill: none; stroke: #ff0000"/>
    <path d="M 314.974849 251.107816 
L 311.974849 257.107816 
L 317.974849 257.107816 
L 314.974849 251.107816 
z
" clip-path="url(#p09fc470002)" style="fill: none; stroke: #ff0000"/>
    <path d="M 233.782216 247.056507 
L 230.782216 253.056507 
L 236.782216 253.056507 
L 233.782216 247.056507 
z
" clip-path="url(#p09fc470002)" style="fill: none; stroke: #ff0000"/>
    <path d="M 362.530535 287.569601 
L 359.530535 293.569601 
L 365.530535 293.569601 
L 362.530535 287.569601 
z
" clip-path="url(#p09fc470002)" style="fill: none; stroke: #ff0000"/>
    <path d="M 360.210745 283.518291 
L 357.210745 289.518291 
L 363.210745 289.518291 
L 360.210745 283.518291 
z
" clip-path="url(#p09fc470002)" style="fill: none; stroke: #ff0000"/>
    <path d="M 352.864745 279.466982 
L 349.864745 285.466982 
L 355.864745 285.466982 
L 352.864745 279.466982 
z
" clip-path="url(#p09fc470002)" style="fill: none; stroke: #ff0000"/>
    <path d="M 347.838535 275.415673 
L 344.838535 281.415673 
L 350.838535 281.415673 
L 347.838535 275.415673 
z
" clip-path="url(#p09fc470002)" style="fill: none; stroke: #ff0000"/>
    <path d="M 342.812324 273.390018 
L 339.812324 279.390018 
L 345.812324 279.390018 
L 342.812324 273.390018 
z
" clip-path="url(#p09fc470002)" style="fill: none; stroke: #ff0000"/>
    <path d="M 340.492534 271.364363 
L 337.492534 277.364363 
L 343.492534 277.364363 
L 340.492534 271.364363 
z
" clip-path="url(#p09fc470002)" style="fill: none; stroke: #ff0000"/>
    <path d="M 337.399482 269.338709 
L 334.399482 275.338709 
L 340.399482 275.338709 
L 337.399482 269.338709 
z
" clip-path="url(#p09fc470002)" style="fill: none; stroke: #ff0000"/>
   </g>
   <g id="PathCollection_3">
    <path d="M 73.832727 287.569601 
L 70.832727 293.569601 
L 76.832727 293.569601 
L 73.832727 287.569601 
z
" clip-path="url(#p09fc470002)" style="fill: none; stroke: #ff0000"/>
    <path d="M 74.219359 283.518291 
L 71.219359 289.518291 
L 77.219359 289.518291 
L 74.219359 283.518291 
z
" clip-path="url(#p09fc470002)" style="fill: none; stroke: #ff0000"/>
    <path d="M 76.616475 279.466982 
L 73.616475 285.466982 
L 79.616475 285.466982 
L 76.616475 279.466982 
z
" clip-path="url(#p09fc470002)" style="fill: none; stroke: #ff0000"/>
    <path d="M 78.124338 275.415673 
L 75.124338 281.415673 
L 81.124338 281.415673 
L 78.124338 275.415673 
z
" clip-path="url(#p09fc470002)" style="fill: none; stroke: #ff0000"/>
    <path d="M 78.549633 273.390018 
L 75.549633 279.390018 
L 81.549633 279.390018 
L 78.549633 273.390018 
z
" clip-path="url(#p09fc470002)" style="fill: none; stroke: #ff0000"/>
    <path d="M 79.12958 273.390018 
L 76.12958 279.390018 
L 82.12958 279.390018 
L 79.12958 273.390018 
z
" clip-path="url(#p09fc470002)" style="fill: none; stroke: #ff0000"/>
    <path d="M 80.637443 271.364363 
L 77.637443 277.364363 
L 83.637443 277.364363 
L 80.637443 271.364363 
z
" clip-path="url(#p09fc470002)" style="fill: none; stroke: #ff0000"/>
    <path d="M 81.44937 269.338709 
L 78.44937 275.338709 
L 84.44937 275.338709 
L 81.44937 269.338709 
z
" clip-path="url(#p09fc470002)" style="fill: none; stroke: #ff0000"/>
    <path d="M 83.227875 269.338709 
L 80.227875 275.338709 
L 86.227875 275.338709 
L 83.227875 269.338709 
z
" clip-path="url(#p09fc470002)" style="fill: none; stroke: #ff0000"/>
    <path d="M 83.769159 266.097661 
L 80.769159 272.097661 
L 86.769159 272.097661 
L 83.769159 266.097661 
z
" clip-path="url(#p09fc470002)" style="fill: none; stroke: #ff0000"/>
    <path d="M 85.818307 267.313054 
L 82.818307 273.313054 
L 88.818307 273.313054 
L 85.818307 267.313054 
z
" clip-path="url(#p09fc470002)" style="fill: none; stroke: #ff0000"/>
    <path d="M 86.862212 265.287399 
L 83.862212 271.287399 
L 89.862212 271.287399 
L 86.862212 265.287399 
z
" clip-path="url(#p09fc470002)" style="fill: none; stroke: #ff0000"/>
    <path d="M 88.022107 261.23609 
L 85.022107 267.23609 
L 91.022107 267.23609 
L 88.022107 261.23609 
z
" clip-path="url(#p09fc470002)" style="fill: none; stroke: #ff0000"/>
    <path d="M 92.275054 257.18478 
L 89.275054 263.18478 
L 95.275054 263.18478 
L 92.275054 257.18478 
z
" clip-path="url(#p09fc470002)" style="fill: none; stroke: #ff0000"/>
    <path d="M 94.594844 255.159126 
L 91.594844 261.159126 
L 97.594844 261.159126 
L 94.594844 255.159126 
z
" clip-path="url(#p09fc470002)" style="fill: none; stroke: #ff0000"/>
    <path d="M 102.327475 253.133471 
L 99.327475 259.133471 
L 105.327475 259.133471 
L 102.327475 253.133471 
z
" clip-path="url(#p09fc470002)" style="fill: none; stroke: #ff0000"/>
    <path d="M 102.327475 251.107816 
L 99.327475 257.107816 
L 105.327475 257.107816 
L 102.327475 251.107816 
z
" clip-path="url(#p09fc470002)" style="fill: none; stroke: #ff0000"/>
   </g>
   <g id="PathCollection_4">
    <path d="M 371.423061 273.390018 
L 368.423061 279.390018 
L 374.423061 279.390018 
L 371.423061 273.390018 
z
" clip-path="url(#p09fc470002)" style="fill: none; stroke: #ff0000"/>
    <path d="M 377.222535 232.876924 
L 374.222535 238.876924 
L 380.222535 238.876924 
L 377.222535 232.876924 
z
" clip-path="url(#p09fc470002)" style="fill: none; stroke: #ff0000"/>
    <path d="M 388.04822 172.107283 
L 385.04822 178.107283 
L 391.04822 178.107283 
L 388.04822 172.107283 
z
" clip-path="url(#p09fc470002)" style="fill: none; stroke: #ff0000"/>
    <path d="M 398.487273 50.568 
L 395.487273 56.568 
L 401.487273 56.568 
L 398.487273 50.568 
z
" clip-path="url(#p09fc470002)" style="fill: none; stroke: #ff0000"/>
   </g>
   <g id="PathCollection_5">
    <defs>
     <path id="m197b6c4dd2" d="M 0 -3 
L -3 3 
L 3 3 
z
" style="stroke: #008000"/>
    </defs>
    <g clip-path="url(#p09fc470002)">
     <use xlink:href="#m197b6c4dd2" x="364.644906" y="294.565945" style="fill: #008000; stroke: #008000"/>
    </g>
   </g>
   <g id="matplotlib.axis_1">
    <g id="xtick_1">
     <g id="line2d_4">
      <defs>
       <path id="m4f39c0928c" d="M 0 0 
L 0 3.5 
" style="stroke: #000000; stroke-width: 0.8"/>
      </defs>
      <g>
       <use xlink:href="#m4f39c0928c" x="67.530632" y="307.584" style="stroke: #000000; stroke-width: 0.8"/>
      </g>
     </g>
     <g id="text_1">
      <!-- 0.0 -->
      <g transform="translate(61.280632 321.81525) scale(0.1 -0.1)">
       <defs>
        <path id="PalatinoLinotype-Roman-30" d="M 194 1909 
Q 194 2466 250 2911 
Q 306 3356 498 3704 
Q 691 4053 980 4226 
Q 1269 4400 1638 4400 
Q 2056 4400 2373 4184 
Q 2691 3969 2830 3522 
Q 2969 3075 2969 2306 
Q 2969 1056 2586 465 
Q 2203 -125 1525 -125 
Q 1184 -125 923 22 
Q 663 169 495 447 
Q 328 725 261 1103 
Q 194 1481 194 1909 
z
M 731 2091 
Q 731 1497 820 1009 
Q 909 522 1117 308 
Q 1325 94 1613 94 
Q 1891 94 2077 284 
Q 2263 475 2348 937 
Q 2434 1400 2434 2081 
Q 2434 3150 2231 3662 
Q 2028 4175 1559 4175 
Q 1150 4175 940 3778 
Q 731 3381 731 2091 
z
" transform="scale(0.015625)"/>
        <path id="PalatinoLinotype-Roman-2e" d="M 800 691 
Q 950 691 1061 584 
Q 1172 478 1172 316 
Q 1172 163 1062 53 
Q 953 -56 800 -56 
Q 644 -56 534 51 
Q 425 159 425 316 
Q 425 472 534 581 
Q 644 691 800 691 
z
" transform="scale(0.015625)"/>
       </defs>
       <use xlink:href="#PalatinoLinotype-Roman-30"/>
       <use xlink:href="#PalatinoLinotype-Roman-2e" x="50"/>
       <use xlink:href="#PalatinoLinotype-Roman-30" x="75"/>
      </g>
     </g>
    </g>
    <g id="xtick_2">
     <g id="line2d_5">
      <g>
       <use xlink:href="#m4f39c0928c" x="144.85695" y="307.584" style="stroke: #000000; stroke-width: 0.8"/>
      </g>
     </g>
     <g id="text_2">
      <!-- 0.2 -->
      <g transform="translate(138.60695 321.81525) scale(0.1 -0.1)">
       <defs>
        <path id="PalatinoLinotype-Roman-32" d="M 144 -31 
L 106 0 
L 106 144 
L 1153 1253 
Q 1800 1938 1990 2313 
Q 2181 2688 2181 3013 
Q 2181 3394 1950 3647 
Q 1719 3900 1325 3900 
Q 1072 3900 884 3822 
Q 697 3744 633 3647 
Q 569 3550 447 3103 
L 419 3078 
L 291 3078 
L 259 3106 
Q 331 3528 359 3941 
Q 653 4228 908 4308 
Q 1163 4388 1441 4388 
Q 1772 4388 2075 4263 
Q 2378 4138 2562 3858 
Q 2747 3578 2747 3209 
Q 2747 2934 2639 2657 
Q 2531 2381 2323 2123 
Q 2116 1866 1756 1506 
L 781 513 
L 2016 513 
Q 2584 513 2963 553 
L 2984 528 
Q 2966 422 2966 250 
Q 2966 94 2984 3 
L 2963 -31 
Q 2738 -19 2272 -9 
Q 1806 0 1656 0 
Q 1353 0 840 -8 
Q 328 -16 144 -31 
z
" transform="scale(0.015625)"/>
       </defs>
       <use xlink:href="#PalatinoLinotype-Roman-30"/>
       <use xlink:href="#PalatinoLinotype-Roman-2e" x="50"/>
       <use xlink:href="#PalatinoLinotype-Roman-32" x="75"/>
      </g>
     </g>
    </g>
    <g id="xtick_3">
     <g id="line2d_6">
      <g>
       <use xlink:href="#m4f39c0928c" x="222.183268" y="307.584" style="stroke: #000000; stroke-width: 0.8"/>
      </g>
     </g>
     <g id="text_3">
      <!-- 0.4 -->
      <g transform="translate(215.933268 321.81525) scale(0.1 -0.1)">
       <defs>
        <path id="PalatinoLinotype-Roman-34" d="M 1028 -25 
L 1003 0 
L 1003 134 
L 1028 159 
Q 1491 172 1577 187 
Q 1663 203 1703 253 
Q 1744 303 1764 497 
Q 1784 691 1784 909 
L 1784 1141 
L 1100 1141 
Q 503 1141 91 1122 
L 38 1291 
Q 581 2309 1853 4241 
L 2294 4419 
L 2372 4381 
Q 2338 3850 2338 3066 
L 2328 2184 
L 2328 1538 
Q 2759 1541 2994 1556 
L 3022 1525 
Q 3016 1406 3016 1353 
Q 3019 1250 3025 1150 
L 2994 1122 
Q 2691 1141 2488 1141 
L 2328 1141 
L 2328 931 
Q 2328 581 2347 434 
Q 2366 288 2406 245 
Q 2447 203 2570 183 
Q 2694 163 2997 159 
L 3025 134 
L 3025 0 
L 3000 -25 
Q 2450 0 2078 0 
Q 1472 0 1028 -25 
z
M 450 1538 
L 1784 1538 
L 1813 3759 
Q 1513 3331 1056 2584 
Q 600 1838 450 1538 
z
" transform="scale(0.015625)"/>
       </defs>
       <use xlink:href="#PalatinoLinotype-Roman-30"/>
       <use xlink:href="#PalatinoLinotype-Roman-2e" x="50"/>
       <use xlink:href="#PalatinoLinotype-Roman-34" x="75"/>
      </g>
     </g>
    </g>
    <g id="xtick_4">
     <g id="line2d_7">
      <g>
       <use xlink:href="#m4f39c0928c" x="299.509586" y="307.584" style="stroke: #000000; stroke-width: 0.8"/>
      </g>
     </g>
     <g id="text_4">
      <!-- 0.6 -->
      <g transform="translate(293.259586 321.81525) scale(0.1 -0.1)">
       <defs>
        <path id="PalatinoLinotype-Roman-36" d="M 2700 4322 
L 2700 4284 
Q 2359 4213 1923 3944 
Q 1488 3675 1191 3222 
Q 894 2769 847 2128 
Q 953 2203 1091 2309 
Q 1269 2444 1351 2494 
Q 1434 2544 1573 2581 
Q 1713 2619 1894 2619 
Q 2216 2619 2472 2476 
Q 2728 2334 2856 2057 
Q 2984 1781 2984 1413 
Q 2984 891 2731 539 
Q 2478 188 2193 36 
Q 1909 -116 1541 -116 
Q 913 -116 566 354 
Q 219 825 219 1578 
Q 219 2078 364 2539 
Q 509 3000 806 3373 
Q 1103 3747 1564 4037 
Q 2025 4328 2472 4431 
L 2700 4322 
z
M 788 1341 
Q 788 1031 877 728 
Q 966 425 1162 259 
Q 1359 94 1625 94 
Q 1853 94 2047 222 
Q 2241 350 2342 623 
Q 2444 897 2444 1200 
Q 2444 1503 2344 1742 
Q 2244 1981 2053 2114 
Q 1863 2247 1609 2247 
Q 1422 2247 1234 2156 
Q 1047 2066 945 1950 
Q 844 1834 816 1704 
Q 788 1575 788 1341 
z
" transform="scale(0.015625)"/>
       </defs>
       <use xlink:href="#PalatinoLinotype-Roman-30"/>
       <use xlink:href="#PalatinoLinotype-Roman-2e" x="50"/>
       <use xlink:href="#PalatinoLinotype-Roman-36" x="75"/>
      </g>
     </g>
    </g>
    <g id="xtick_5">
     <g id="line2d_8">
      <g>
       <use xlink:href="#m4f39c0928c" x="376.835904" y="307.584" style="stroke: #000000; stroke-width: 0.8"/>
      </g>
     </g>
     <g id="text_5">
      <!-- 0.8 -->
      <g transform="translate(370.585904 321.81525) scale(0.1 -0.1)">
       <defs>
        <path id="PalatinoLinotype-Roman-38" d="M 1050 2216 
Q 703 2400 523 2639 
Q 344 2878 344 3219 
Q 344 3697 697 4039 
Q 1050 4381 1659 4381 
Q 1969 4381 2233 4273 
Q 2497 4166 2640 3952 
Q 2784 3738 2784 3475 
Q 2784 3200 2615 2948 
Q 2447 2697 2019 2438 
L 2019 2409 
Q 2384 2234 2561 2112 
Q 2738 1991 2850 1783 
Q 2963 1575 2963 1303 
Q 2963 931 2748 589 
Q 2534 247 2184 69 
Q 1834 -109 1459 -109 
Q 913 -109 556 197 
Q 200 503 200 1013 
Q 200 1425 445 1723 
Q 691 2022 1050 2188 
L 1050 2216 
z
M 1778 2516 
Q 2113 2725 2231 2936 
Q 2350 3147 2350 3391 
Q 2350 3750 2144 3959 
Q 1938 4169 1591 4169 
Q 1259 4169 1040 3983 
Q 822 3797 822 3463 
Q 822 3209 964 3023 
Q 1106 2838 1778 2516 
z
M 1303 2103 
Q 934 1884 790 1632 
Q 647 1381 647 1063 
Q 647 616 897 361 
Q 1147 106 1541 106 
Q 1809 106 2028 231 
Q 2247 356 2355 573 
Q 2463 791 2463 1047 
Q 2463 1416 2205 1622 
Q 1947 1828 1303 2103 
z
" transform="scale(0.015625)"/>
       </defs>
       <use xlink:href="#PalatinoLinotype-Roman-30"/>
       <use xlink:href="#PalatinoLinotype-Roman-2e" x="50"/>
       <use xlink:href="#PalatinoLinotype-Roman-38" x="75"/>
      </g>
     </g>
    </g>
    <g id="text_6">
     <!-- $\mathit{\rho^*}$ -->
     <g transform="translate(229.76 336.849625) scale(0.1 -0.1)">
      <defs>
       <path id="DejaVuSerif-Italic-3c1" d="M 1134 1825 
L 1069 1497 
Q 953 897 1122 583 
Q 1291 269 1728 269 
Q 2169 269 2464 622 
Q 2759 975 2894 1663 
Q 3031 2378 2869 2703 
Q 2675 3084 2275 3084 
Q 1859 3084 1541 2738 
Q 1250 2422 1134 1825 
z
M 519 -1331 
L -56 -1331 
L 522 1638 
Q 675 2422 1022 2803 
Q 1394 3159 1622 3269 
Q 1928 3413 2331 3413 
Q 3131 3413 3423 2928 
Q 3716 2444 3564 1662 
Q 3413 881 2931 395 
Q 2450 -91 1838 -91 
Q 1453 -91 1220 57 
Q 988 206 881 519 
L 519 -1331 
z
" transform="scale(0.015625)"/>
       <path id="DejaVuSerif-2a" d="M 3097 3866 
L 1875 3297 
L 3097 2719 
L 2859 2350 
L 1772 3028 
L 1813 1838 
L 1388 1838 
L 1428 3028 
L 341 2350 
L 103 2719 
L 1325 3291 
L 103 3866 
L 341 4238 
L 1428 3559 
L 1388 4750 
L 1813 4750 
L 1772 3559 
L 2859 4238 
L 3097 3866 
z
" transform="scale(0.015625)"/>
      </defs>
      <use xlink:href="#DejaVuSerif-Italic-3c1" transform="translate(0 0.7125)"/>
      <use xlink:href="#DejaVuSerif-2a" transform="translate(76.502526 37.046875) scale(0.7)"/>
     </g>
    </g>
   </g>
   <g id="matplotlib.axis_2">
    <g id="ytick_1">
     <g id="line2d_9">
      <defs>
       <path id="m4a3779723e" d="M 0 0 
L -3.5 0 
" style="stroke: #000000; stroke-width: 0.8"/>
      </defs>
      <g>
       <use xlink:href="#m4a3779723e" x="57.6" y="296.646565" style="stroke: #000000; stroke-width: 0.8"/>
      </g>
     </g>
     <g id="text_7">
      <!-- 0.4 -->
      <g transform="translate(38.1 300.26219) scale(0.1 -0.1)">
       <use xlink:href="#PalatinoLinotype-Roman-30"/>
       <use xlink:href="#PalatinoLinotype-Roman-2e" x="50"/>
       <use xlink:href="#PalatinoLinotype-Roman-34" x="75"/>
      </g>
     </g>
    </g>
    <g id="ytick_2">
     <g id="line2d_10">
      <g>
       <use xlink:href="#m4a3779723e" x="57.6" y="256.133471" style="stroke: #000000; stroke-width: 0.8"/>
      </g>
     </g>
     <g id="text_8">
      <!-- 0.5 -->
      <g transform="translate(38.1 259.749096) scale(0.1 -0.1)">
       <defs>
        <path id="PalatinoLinotype-Roman-35" d="M 409 44 
Q 334 288 100 850 
L 106 891 
L 216 953 
L 253 944 
Q 513 472 577 408 
Q 641 344 869 258 
Q 1097 172 1350 172 
Q 1666 172 1909 309 
Q 2153 447 2272 715 
Q 2391 984 2391 1325 
Q 2391 1659 2273 1901 
Q 2156 2144 1915 2269 
Q 1675 2394 1397 2394 
Q 1222 2394 1080 2347 
Q 938 2300 842 2226 
Q 747 2153 616 2009 
L 488 2047 
L 522 2719 
Q 534 2909 534 3103 
L 534 3659 
Q 534 3909 519 4138 
Q 509 4278 509 4316 
L 550 4347 
Q 1028 4309 1641 4309 
Q 2106 4309 2756 4347 
L 2769 4316 
Q 2747 4163 2747 4031 
Q 2747 3966 2756 3813 
L 2725 3794 
Q 2369 3819 1769 3819 
Q 953 3819 822 3813 
Q 775 3444 756 2513 
Q 1013 2700 1219 2767 
Q 1425 2834 1666 2834 
Q 2006 2834 2318 2678 
Q 2631 2522 2786 2225 
Q 2941 1928 2941 1584 
Q 2941 950 2417 417 
Q 1894 -116 1078 -116 
Q 859 -116 717 -78 
Q 575 -41 409 44 
z
" transform="scale(0.015625)"/>
       </defs>
       <use xlink:href="#PalatinoLinotype-Roman-30"/>
       <use xlink:href="#PalatinoLinotype-Roman-2e" x="50"/>
       <use xlink:href="#PalatinoLinotype-Roman-35" x="75"/>
      </g>
     </g>
    </g>
    <g id="ytick_3">
     <g id="line2d_11">
      <g>
       <use xlink:href="#m4a3779723e" x="57.6" y="215.620377" style="stroke: #000000; stroke-width: 0.8"/>
      </g>
     </g>
     <g id="text_9">
      <!-- 0.6 -->
      <g transform="translate(38.1 219.236002) scale(0.1 -0.1)">
       <use xlink:href="#PalatinoLinotype-Roman-30"/>
       <use xlink:href="#PalatinoLinotype-Roman-2e" x="50"/>
       <use xlink:href="#PalatinoLinotype-Roman-36" x="75"/>
      </g>
     </g>
    </g>
    <g id="ytick_4">
     <g id="line2d_12">
      <g>
       <use xlink:href="#m4a3779723e" x="57.6" y="175.107283" style="stroke: #000000; stroke-width: 0.8"/>
      </g>
     </g>
     <g id="text_10">
      <!-- 0.7 -->
      <g transform="translate(38.1 178.722908) scale(0.1 -0.1)">
       <defs>
        <path id="PalatinoLinotype-Roman-37" d="M 422 -25 
L 356 41 
Q 469 209 822 766 
L 1394 1678 
L 1931 2556 
L 2400 3363 
Q 2550 3625 2638 3788 
L 2606 3819 
L 1638 3819 
Q 1272 3819 987 3806 
Q 703 3794 653 3770 
Q 603 3747 583 3712 
Q 563 3678 538 3475 
L 481 3034 
L 453 3009 
L 322 3009 
L 294 3034 
L 309 3891 
Q 309 4038 294 4344 
L 356 4375 
Q 528 4356 1054 4334 
Q 1581 4313 1759 4313 
Q 2394 4313 3144 4356 
L 3169 4331 
L 3169 4169 
L 2719 3372 
Q 2309 2641 1784 1639 
Q 1259 638 1019 0 
L 988 -25 
Q 809 -9 719 -9 
Q 575 -9 422 -25 
z
" transform="scale(0.015625)"/>
       </defs>
       <use xlink:href="#PalatinoLinotype-Roman-30"/>
       <use xlink:href="#PalatinoLinotype-Roman-2e" x="50"/>
       <use xlink:href="#PalatinoLinotype-Roman-37" x="75"/>
      </g>
     </g>
    </g>
    <g id="ytick_5">
     <g id="line2d_13">
      <g>
       <use xlink:href="#m4a3779723e" x="57.6" y="134.594188" style="stroke: #000000; stroke-width: 0.8"/>
      </g>
     </g>
     <g id="text_11">
      <!-- 0.8 -->
      <g transform="translate(38.1 138.209813) scale(0.1 -0.1)">
       <use xlink:href="#PalatinoLinotype-Roman-30"/>
       <use xlink:href="#PalatinoLinotype-Roman-2e" x="50"/>
       <use xlink:href="#PalatinoLinotype-Roman-38" x="75"/>
      </g>
     </g>
    </g>
    <g id="ytick_6">
     <g id="line2d_14">
      <g>
       <use xlink:href="#m4a3779723e" x="57.6" y="94.081094" style="stroke: #000000; stroke-width: 0.8"/>
      </g>
     </g>
     <g id="text_12">
      <!-- 0.9 -->
      <g transform="translate(38.1 97.696719) scale(0.1 -0.1)">
       <defs>
        <path id="PalatinoLinotype-Roman-39" d="M 416 -25 
L 416 34 
Q 1284 234 1781 798 
Q 2278 1363 2341 2178 
Q 1881 1631 1313 1631 
Q 953 1631 686 1803 
Q 419 1975 291 2250 
Q 163 2525 163 2894 
Q 163 3572 570 3981 
Q 978 4391 1581 4391 
Q 2191 4391 2567 3950 
Q 2944 3509 2944 2681 
Q 2944 2316 2875 1980 
Q 2806 1644 2615 1291 
Q 2425 938 2111 634 
Q 1797 331 1401 129 
Q 1006 -72 622 -125 
L 416 -25 
z
M 703 3097 
Q 703 2825 798 2564 
Q 894 2303 1091 2161 
Q 1288 2019 1553 2019 
Q 1922 2019 2147 2267 
Q 2372 2516 2372 3009 
Q 2372 3522 2150 3848 
Q 1928 4175 1541 4175 
Q 1169 4175 936 3900 
Q 703 3625 703 3097 
z
" transform="scale(0.015625)"/>
       </defs>
       <use xlink:href="#PalatinoLinotype-Roman-30"/>
       <use xlink:href="#PalatinoLinotype-Roman-2e" x="50"/>
       <use xlink:href="#PalatinoLinotype-Roman-39" x="75"/>
      </g>
     </g>
    </g>
    <g id="ytick_7">
     <g id="line2d_15">
      <g>
       <use xlink:href="#m4a3779723e" x="57.6" y="53.568" style="stroke: #000000; stroke-width: 0.8"/>
      </g>
     </g>
     <g id="text_13">
      <!-- 1.0 -->
      <g transform="translate(38.1 57.183625) scale(0.1 -0.1)">
       <defs>
        <path id="PalatinoLinotype-Roman-31" d="M 478 3531 
L 422 3550 
L 391 3806 
L 422 3838 
Q 734 3928 1212 4128 
Q 1691 4328 1897 4434 
L 1978 4403 
Q 1928 3034 1928 2759 
L 1928 1600 
Q 1928 1172 1937 795 
Q 1947 419 1965 351 
Q 1984 284 2029 246 
Q 2075 209 2156 198 
Q 2238 188 2641 166 
L 2663 141 
L 2663 0 
L 2641 -25 
Q 1956 0 1675 0 
Q 1463 0 634 -25 
L 613 0 
L 613 141 
L 638 166 
Q 1106 200 1173 215 
Q 1241 231 1277 270 
Q 1313 309 1334 418 
Q 1356 528 1370 1065 
Q 1384 1603 1384 1616 
L 1384 2847 
Q 1384 3753 1379 3831 
Q 1375 3909 1325 3909 
Q 1313 3909 1291 3903 
Q 1269 3897 1153 3847 
L 844 3709 
Q 650 3625 478 3531 
z
" transform="scale(0.015625)"/>
       </defs>
       <use xlink:href="#PalatinoLinotype-Roman-31"/>
       <use xlink:href="#PalatinoLinotype-Roman-2e" x="50"/>
       <use xlink:href="#PalatinoLinotype-Roman-30" x="75"/>
      </g>
     </g>
    </g>
    <g id="text_14">
     <!-- $T^*$ -->
     <g transform="translate(31.321875 180.478) rotate(-90) scale(0.1 -0.1)">
      <defs>
       <path id="PalatinoLinotype-Italic-54" d="M 863 -25 
L 841 0 
L 853 138 
L 878 159 
Q 1253 188 1320 214 
Q 1388 241 1411 272 
Q 1434 303 1462 401 
Q 1491 500 1622 1156 
Q 1753 1813 1890 2648 
Q 2028 3484 2097 4116 
Q 1066 4116 933 4066 
Q 800 4016 669 3391 
L 641 3366 
L 516 3366 
L 491 3391 
Q 588 4184 594 4384 
L 625 4416 
L 853 4400 
Q 903 4397 1066 4394 
L 2372 4369 
L 3944 4397 
Q 3972 4397 4156 4416 
L 4184 4384 
Q 4103 4078 4022 3394 
L 3991 3366 
L 3866 3366 
L 3841 3394 
Q 3844 3447 3850 3775 
Q 3847 3981 3797 4048 
Q 3747 4116 2631 4116 
Q 2600 3981 2497 3397 
L 2291 2238 
Q 2253 2028 2133 1262 
Q 2013 497 2013 344 
Q 2013 259 2075 218 
Q 2138 178 2597 163 
L 2622 134 
L 2609 0 
L 2581 -25 
Q 2056 0 1734 0 
Q 1266 0 863 -25 
z
" transform="scale(0.015625)"/>
       <path id="PalatinoLinotype-Italic-2a" d="M 669 2653 
Q 625 2781 506 3013 
L 531 3056 
Q 613 3094 873 3201 
Q 1134 3309 1341 3409 
Q 1203 3481 915 3620 
Q 628 3759 522 3803 
L 497 3866 
Q 500 3869 597 4041 
L 703 4222 
L 769 4219 
Q 1081 3872 1428 3553 
Q 1481 3847 1509 4048 
Q 1538 4250 1569 4450 
L 1625 4484 
Q 1828 4419 2019 4375 
L 2028 4319 
Q 1653 3650 1578 3491 
Q 1666 3500 2466 3641 
L 2503 3619 
Q 2509 3503 2553 3247 
L 2506 3213 
Q 1900 3303 1588 3325 
Q 1694 3100 1800 2922 
Q 1994 2591 2000 2566 
L 1988 2528 
Q 1669 2375 1613 2334 
L 1566 2369 
Q 1497 2875 1425 3266 
Q 1191 3063 931 2819 
L 741 2644 
L 669 2653 
z
" transform="scale(0.015625)"/>
      </defs>
      <use xlink:href="#PalatinoLinotype-Italic-54" transform="translate(0 0.870313)"/>
      <use xlink:href="#PalatinoLinotype-Italic-2a" transform="translate(75.235352 33.95625) scale(0.7)"/>
     </g>
    </g>
   </g>
   <g id="patch_3">
    <path d="M 57.6 307.584 
L 57.6 41.472 
" style="fill: none; stroke: #000000; stroke-width: 0.8; stroke-linejoin: miter; stroke-linecap: square"/>
   </g>
   <g id="patch_4">
    <path d="M 414.72 307.584 
L 414.72 41.472 
" style="fill: none; stroke: #000000; stroke-width: 0.8; stroke-linejoin: miter; stroke-linecap: square"/>
   </g>
   <g id="patch_5">
    <path d="M 57.6 307.584 
L 414.72 307.584 
" style="fill: none; stroke: #000000; stroke-width: 0.8; stroke-linejoin: miter; stroke-linecap: square"/>
   </g>
   <g id="patch_6">
    <path d="M 57.6 41.472 
L 414.72 41.472 
" style="fill: none; stroke: #000000; stroke-width: 0.8; stroke-linejoin: miter; stroke-linecap: square"/>
   </g>
  </g>
 </g>
 <defs>
  <clipPath id="p09fc470002">
   <rect x="57.6" y="41.472" width="357.12" height="266.112"/>
  </clipPath>
 </defs>
</svg>
