<?xml version="1.0" encoding="utf-8" standalone="no"?>
<!DOCTYPE svg PUBLIC "-//W3C//DTD SVG 1.1//EN"
  "http://www.w3.org/Graphics/SVG/1.1/DTD/svg11.dtd">
<svg xmlns:xlink="http://www.w3.org/1999/xlink" width="413.965312pt" height="320.97325pt" viewBox="0 0 413.965312 320.97325" xmlns="http://www.w3.org/2000/svg" version="1.1">
 <metadata>
  <rdf:RDF xmlns:dc="http://purl.org/dc/elements/1.1/" xmlns:cc="http://creativecommons.org/ns#" xmlns:rdf="http://www.w3.org/1999/02/22-rdf-syntax-ns#">
   <cc:Work>
    <dc:type rdf:resource="http://purl.org/dc/dcmitype/StillImage"/>
    <dc:date>2023-12-09T18:39:07.588670</dc:date>
    <dc:format>image/svg+xml</dc:format>
    <dc:creator>
     <cc:Agent>
      <dc:title>Matplotlib v3.8.2, https://matplotlib.org/</dc:title>
     </cc:Agent>
    </dc:creator>
   </cc:Work>
  </rdf:RDF>
 </metadata>
 <defs>
  <style type="text/css">*{stroke-linejoin: round; stroke-linecap: butt}</style>
 </defs>
 <g id="figure_1">
  <g id="patch_1">
   <path d="M 0 320.97325 
L 413.965312 320.97325 
L 413.965312 0 
L 0 0 
z
" style="fill: #ffffff"/>
  </g>
  <g id="axes_1">
   <g id="patch_2">
    <path d="M 49.645313 273.312 
L 406.765313 273.312 
L 406.765313 7.2 
L 49.645313 7.2 
z
" style="fill: #ffffff"/>
   </g>
   <g id="line2d_1">
    <path d="M 65.87804 254.30322 
L 67.243748 251.180086 
L 68.609455 248.143862 
L 69.975163 245.257881 
L 71.340871 242.567088 
L 72.706578 240.09655 
L 74.072286 237.85393 
L 75.437994 235.833949 
L 76.803702 234.023062 
L 78.169409 232.403345 
L 79.535117 230.955296 
L 80.900825 229.659613 
L 82.266533 228.498197 
L 83.63224 227.454636 
L 84.997948 226.514355 
L 86.363656 225.664577 
L 87.729364 224.894195 
L 89.095071 224.193596 
L 90.460779 223.554477 
L 91.826487 222.96967 
L 93.192195 222.432985 
L 94.557902 221.939067 
L 95.92361 221.483272 
L 97.289318 221.061567 
L 98.655026 220.670437 
L 100.020733 220.306809 
L 101.386441 219.967991 
L 102.752149 219.651619 
L 104.117857 219.355607 
L 105.483564 219.07811 
L 106.849272 218.817494 
L 108.21498 218.572305 
L 109.580688 218.341247 
L 110.946395 218.123162 
L 112.312103 217.917011 
L 113.677811 217.721862 
L 115.043519 217.536873 
L 116.409226 217.361288 
L 117.774934 217.194418 
L 119.140642 217.035642 
L 120.50635 216.884395 
L 121.872057 216.740162 
L 123.237765 216.602472 
L 124.603473 216.470898 
L 125.969181 216.345045 
L 127.334888 216.224553 
L 128.700596 216.109091 
L 130.066304 215.998355 
L 131.432012 215.892062 
L 132.797719 215.789954 
L 134.163427 215.691791 
L 135.529135 215.597351 
L 136.894843 215.506429 
L 138.26055 215.418832 
L 139.626258 215.334383 
L 140.991966 215.252918 
L 142.357673 215.174282 
L 143.723381 215.098332 
L 145.089089 215.024932 
L 146.454797 214.953959 
L 147.820504 214.885293 
L 149.186212 214.818826 
L 150.55192 214.754455 
L 151.917628 214.692081 
L 153.283335 214.631615 
L 154.649043 214.57297 
L 156.014751 214.516066 
L 157.380459 214.460828 
L 158.746166 214.407182 
L 160.111874 214.355063 
L 161.477582 214.304406 
L 162.84329 214.25515 
L 164.208997 214.207239 
L 165.574705 214.160618 
L 166.940413 214.115237 
L 168.306121 214.071046 
L 169.671828 214.028001 
L 171.037536 213.986056 
L 172.403244 213.945171 
L 173.768952 213.905305 
L 175.134659 213.866422 
L 176.500367 213.828486 
L 177.866075 213.791463 
L 179.231783 213.75532 
L 180.59749 213.720026 
L 181.963198 213.685553 
L 183.328906 213.65187 
L 184.694614 213.618953 
L 186.060321 213.586775 
L 187.426029 213.555312 
L 188.791737 213.52454 
L 190.157445 213.494437 
L 191.523152 213.46498 
L 192.88886 213.436151 
L 194.254568 213.407928 
L 195.620276 213.380294 
L 196.985983 213.353229 
L 198.351691 213.326717 
L 199.717399 213.300741 
L 201.083107 213.275284 
" clip-path="url(#p009ba1c514)" style="fill: none; stroke: #1f77b4; stroke-width: 1.5; stroke-linecap: square"/>
   </g>
   <g id="line2d_2">
    <path d="M 201.083107 213.33817 
L 202.723362 213.430422 
L 204.363617 213.5243 
L 206.003872 213.61985 
L 207.644127 213.717114 
L 209.284383 213.81614 
L 210.924638 213.916977 
L 212.564893 214.019673 
L 214.205148 214.12428 
L 215.845404 214.230854 
L 217.485659 214.339448 
L 219.125914 214.450122 
L 220.766169 214.562935 
L 222.406424 214.67795 
L 224.04668 214.795232 
L 225.686935 214.914848 
L 227.32719 215.036869 
L 228.967445 215.161367 
L 230.607701 215.288419 
L 232.247956 215.418103 
L 233.888211 215.550503 
L 235.528466 215.685704 
L 237.168722 215.823796 
L 238.808977 215.964872 
L 240.449232 216.10903 
L 242.089487 216.256371 
L 243.729742 216.407002 
L 245.369998 216.561034 
L 247.010253 216.718583 
L 248.650508 216.87977 
L 250.290763 217.044722 
L 251.931019 217.213574 
L 253.571274 217.386463 
L 255.211529 217.563536 
L 256.851784 217.744946 
L 258.492039 217.930854 
L 260.132295 218.121428 
L 261.77255 218.316847 
L 263.412805 218.517295 
L 265.05306 218.722969 
L 266.693316 218.934075 
L 268.333571 219.15083 
L 269.973826 219.373463 
L 271.614081 219.602215 
L 273.254337 219.83734 
L 274.894592 220.079109 
L 276.534847 220.327803 
L 278.175102 220.583724 
L 279.815357 220.84719 
L 281.455613 221.118538 
L 283.095868 221.398124 
L 284.736123 221.686326 
L 286.376378 221.983548 
L 288.016634 222.290216 
L 289.656889 222.606785 
L 291.297144 222.933739 
L 292.937399 223.271594 
L 294.577654 223.6209 
L 296.21791 223.982245 
L 297.858165 224.356257 
L 299.49842 224.743609 
L 301.138675 225.145021 
L 302.778931 225.561265 
L 304.419186 225.993172 
L 306.059441 226.441635 
L 307.699696 226.907613 
L 309.339951 227.392144 
L 310.980207 227.896344 
L 312.620462 228.421424 
L 314.260717 228.968692 
L 315.900972 229.539567 
L 317.541228 230.13559 
L 319.181483 230.758438 
L 320.821738 231.409937 
L 322.461993 232.092081 
L 324.102249 232.807051 
L 325.742504 233.557233 
L 327.382759 234.345251 
L 329.023014 235.173986 
L 330.663269 236.046617 
L 332.303525 236.966654 
L 333.94378 237.937982 
L 335.584035 238.964913 
L 337.22429 240.052244 
L 338.864546 241.205323 
L 340.504801 242.430131 
L 342.145056 243.733373 
L 343.785311 245.122586 
L 345.425566 246.606269 
L 347.065822 248.194034 
L 348.706077 249.896782 
L 350.346332 251.72692 
L 351.986587 253.698607 
L 353.626843 255.828057 
L 355.267098 258.133897 
" clip-path="url(#p009ba1c514)" style="fill: none; stroke: #1f77b4; stroke-width: 1.5; stroke-linecap: square"/>
   </g>
   <g id="line2d_3">
    <path d="M 356.373864 261.216 
L 358.592617 254.455629 
L 360.796985 247.016299 
L 362.994162 238.807356 
L 365.184146 229.752289 
L 367.366938 219.767314 
L 369.546134 208.741587 
L 371.721735 196.568686 
L 373.893739 183.131523 
L 376.062147 168.301297 
L 378.226959 151.936354 
L 380.391771 133.849351 
L 382.556583 113.85908 
L 384.717799 91.803824 
L 386.879015 67.431777 
L 389.040231 40.499571 
L 390.514605 20.520671 
L 390.514605 20.520671 
" clip-path="url(#p009ba1c514)" style="fill: none; stroke: #1f77b4; stroke-width: 1.5; stroke-linecap: square"/>
   </g>
   <g id="PolyCollection_1"/>
   <g id="PolyCollection_2"/>
   <g id="PolyCollection_3"/>
   <g id="PathCollection_1">
    <defs>
     <path id="m33376c578d" d="M 0 -3 
L -0.673542 -0.927051 
L -2.85317 -0.927051 
L -1.089814 0.354102 
L -1.763356 2.427051 
L -0 1.145898 
L 1.763356 2.427051 
L 1.089814 0.354102 
L 2.85317 -0.927051 
L 0.673542 -0.927051 
z
" style="stroke: #ff0000"/>
    </defs>
    <g clip-path="url(#p009ba1c514)">
     <use xlink:href="#m33376c578d" x="201.083107" y="212.94859" style="fill: #ff0000; stroke: #ff0000"/>
    </g>
   </g>
   <g id="PathCollection_2">
    <path d="M 338.723952 239.118018 
L 335.723952 245.118018 
L 341.723952 245.118018 
L 338.723952 239.118018 
z
" clip-path="url(#p009ba1c514)" style="fill: none; stroke: #ff0000"/>
    <path d="M 337.950689 235.066709 
L 334.950689 241.066709 
L 340.950689 241.066709 
L 337.950689 235.066709 
z
" clip-path="url(#p009ba1c514)" style="fill: none; stroke: #ff0000"/>
    <path d="M 330.218057 231.015399 
L 327.218057 237.015399 
L 333.218057 237.015399 
L 330.218057 231.015399 
z
" clip-path="url(#p009ba1c514)" style="fill: none; stroke: #ff0000"/>
    <path d="M 322.485426 226.96409 
L 319.485426 232.96409 
L 325.485426 232.96409 
L 322.485426 226.96409 
z
" clip-path="url(#p009ba1c514)" style="fill: none; stroke: #ff0000"/>
    <path d="M 310.886478 222.91278 
L 307.886478 228.91278 
L 313.886478 228.91278 
L 310.886478 222.91278 
z
" clip-path="url(#p009ba1c514)" style="fill: none; stroke: #ff0000"/>
    <path d="M 310.886478 220.887126 
L 307.886478 226.887126 
L 313.886478 226.887126 
L 310.886478 220.887126 
z
" clip-path="url(#p009ba1c514)" style="fill: none; stroke: #ff0000"/>
    <path d="M 310.886478 218.861471 
L 307.886478 224.861471 
L 313.886478 224.861471 
L 310.886478 218.861471 
z
" clip-path="url(#p009ba1c514)" style="fill: none; stroke: #ff0000"/>
    <path d="M 307.020162 216.835816 
L 304.020162 222.835816 
L 310.020162 222.835816 
L 307.020162 216.835816 
z
" clip-path="url(#p009ba1c514)" style="fill: none; stroke: #ff0000"/>
    <path d="M 225.827528 212.784507 
L 222.827528 218.784507 
L 228.827528 218.784507 
L 225.827528 212.784507 
z
" clip-path="url(#p009ba1c514)" style="fill: none; stroke: #ff0000"/>
    <path d="M 354.575847 253.297601 
L 351.575847 259.297601 
L 357.575847 259.297601 
L 354.575847 253.297601 
z
" clip-path="url(#p009ba1c514)" style="fill: none; stroke: #ff0000"/>
    <path d="M 352.256058 249.246291 
L 349.256058 255.246291 
L 355.256058 255.246291 
L 352.256058 249.246291 
z
" clip-path="url(#p009ba1c514)" style="fill: none; stroke: #ff0000"/>
    <path d="M 344.910058 245.194982 
L 341.910058 251.194982 
L 347.910058 251.194982 
L 344.910058 245.194982 
z
" clip-path="url(#p009ba1c514)" style="fill: none; stroke: #ff0000"/>
    <path d="M 339.883847 241.143673 
L 336.883847 247.143673 
L 342.883847 247.143673 
L 339.883847 241.143673 
z
" clip-path="url(#p009ba1c514)" style="fill: none; stroke: #ff0000"/>
    <path d="M 334.857636 239.118018 
L 331.857636 245.118018 
L 337.857636 245.118018 
L 334.857636 239.118018 
z
" clip-path="url(#p009ba1c514)" style="fill: none; stroke: #ff0000"/>
    <path d="M 332.537847 237.092363 
L 329.537847 243.092363 
L 335.537847 243.092363 
L 332.537847 237.092363 
z
" clip-path="url(#p009ba1c514)" style="fill: none; stroke: #ff0000"/>
    <path d="M 329.444794 235.066709 
L 326.444794 241.066709 
L 332.444794 241.066709 
L 329.444794 235.066709 
z
" clip-path="url(#p009ba1c514)" style="fill: none; stroke: #ff0000"/>
   </g>
   <g id="PathCollection_3">
    <path d="M 65.87804 253.297601 
L 62.87804 259.297601 
L 68.87804 259.297601 
L 65.87804 253.297601 
z
" clip-path="url(#p009ba1c514)" style="fill: none; stroke: #ff0000"/>
    <path d="M 66.264671 249.246291 
L 63.264671 255.246291 
L 69.264671 255.246291 
L 66.264671 249.246291 
z
" clip-path="url(#p009ba1c514)" style="fill: none; stroke: #ff0000"/>
    <path d="M 68.661787 245.194982 
L 65.661787 251.194982 
L 71.661787 251.194982 
L 68.661787 245.194982 
z
" clip-path="url(#p009ba1c514)" style="fill: none; stroke: #ff0000"/>
    <path d="M 70.16965 241.143673 
L 67.16965 247.143673 
L 73.16965 247.143673 
L 70.16965 241.143673 
z
" clip-path="url(#p009ba1c514)" style="fill: none; stroke: #ff0000"/>
    <path d="M 70.594945 239.118018 
L 67.594945 245.118018 
L 73.594945 245.118018 
L 70.594945 239.118018 
z
" clip-path="url(#p009ba1c514)" style="fill: none; stroke: #ff0000"/>
    <path d="M 71.174893 239.118018 
L 68.174893 245.118018 
L 74.174893 245.118018 
L 71.174893 239.118018 
z
" clip-path="url(#p009ba1c514)" style="fill: none; stroke: #ff0000"/>
    <path d="M 72.682756 237.092363 
L 69.682756 243.092363 
L 75.682756 243.092363 
L 72.682756 237.092363 
z
" clip-path="url(#p009ba1c514)" style="fill: none; stroke: #ff0000"/>
    <path d="M 73.494682 235.066709 
L 70.494682 241.066709 
L 76.494682 241.066709 
L 73.494682 235.066709 
z
" clip-path="url(#p009ba1c514)" style="fill: none; stroke: #ff0000"/>
    <path d="M 75.273187 235.066709 
L 72.273187 241.066709 
L 78.273187 241.066709 
L 75.273187 235.066709 
z
" clip-path="url(#p009ba1c514)" style="fill: none; stroke: #ff0000"/>
    <path d="M 75.814472 231.825661 
L 72.814472 237.825661 
L 78.814472 237.825661 
L 75.814472 231.825661 
z
" clip-path="url(#p009ba1c514)" style="fill: none; stroke: #ff0000"/>
    <path d="M 77.863619 233.041054 
L 74.863619 239.041054 
L 80.863619 239.041054 
L 77.863619 233.041054 
z
" clip-path="url(#p009ba1c514)" style="fill: none; stroke: #ff0000"/>
    <path d="M 78.907524 231.015399 
L 75.907524 237.015399 
L 81.907524 237.015399 
L 78.907524 231.015399 
z
" clip-path="url(#p009ba1c514)" style="fill: none; stroke: #ff0000"/>
    <path d="M 80.067419 226.96409 
L 77.067419 232.96409 
L 83.067419 232.96409 
L 80.067419 226.96409 
z
" clip-path="url(#p009ba1c514)" style="fill: none; stroke: #ff0000"/>
    <path d="M 84.320367 222.91278 
L 81.320367 228.91278 
L 87.320367 228.91278 
L 84.320367 222.91278 
z
" clip-path="url(#p009ba1c514)" style="fill: none; stroke: #ff0000"/>
    <path d="M 86.640156 220.887126 
L 83.640156 226.887126 
L 89.640156 226.887126 
L 86.640156 220.887126 
z
" clip-path="url(#p009ba1c514)" style="fill: none; stroke: #ff0000"/>
    <path d="M 94.372788 218.861471 
L 91.372788 224.861471 
L 97.372788 224.861471 
L 94.372788 218.861471 
z
" clip-path="url(#p009ba1c514)" style="fill: none; stroke: #ff0000"/>
    <path d="M 94.372788 216.835816 
L 91.372788 222.835816 
L 97.372788 222.835816 
L 94.372788 216.835816 
z
" clip-path="url(#p009ba1c514)" style="fill: none; stroke: #ff0000"/>
   </g>
   <g id="PathCollection_4">
    <path d="M 363.468374 239.118018 
L 360.468374 245.118018 
L 366.468374 245.118018 
L 363.468374 239.118018 
z
" clip-path="url(#p009ba1c514)" style="fill: none; stroke: #ff0000"/>
    <path d="M 369.267848 198.604924 
L 366.267848 204.604924 
L 372.267848 204.604924 
L 369.267848 198.604924 
z
" clip-path="url(#p009ba1c514)" style="fill: none; stroke: #ff0000"/>
    <path d="M 380.093532 137.835283 
L 377.093532 143.835283 
L 383.093532 143.835283 
L 380.093532 137.835283 
z
" clip-path="url(#p009ba1c514)" style="fill: none; stroke: #ff0000"/>
    <path d="M 390.532585 16.296 
L 387.532585 22.296 
L 393.532585 22.296 
L 390.532585 16.296 
z
" clip-path="url(#p009ba1c514)" style="fill: none; stroke: #ff0000"/>
   </g>
   <g id="PathCollection_5">
    <defs>
     <path id="m49956857bf" d="M 0 -3 
L -3 3 
L 3 3 
z
" style="stroke: #008000"/>
    </defs>
    <g clip-path="url(#p009ba1c514)">
     <use xlink:href="#m49956857bf" x="356.690219" y="260.293945" style="fill: #008000; stroke: #008000"/>
    </g>
   </g>
   <g id="matplotlib.axis_1">
    <g id="xtick_1">
     <g id="line2d_4">
      <defs>
       <path id="m6429ce6995" d="M 0 0 
L 0 3.5 
" style="stroke: #000000; stroke-width: 0.8"/>
      </defs>
      <g>
       <use xlink:href="#m6429ce6995" x="59.575945" y="273.312" style="stroke: #000000; stroke-width: 0.8"/>
      </g>
     </g>
     <g id="text_1">
      <!-- 0.0 -->
      <g transform="translate(50.825945 290.43575) scale(0.14 -0.14)">
       <defs>
        <path id="PalatinoLinotype-Roman-30" d="M 194 1909 
Q 194 2466 250 2911 
Q 306 3356 498 3704 
Q 691 4053 980 4226 
Q 1269 4400 1638 4400 
Q 2056 4400 2373 4184 
Q 2691 3969 2830 3522 
Q 2969 3075 2969 2306 
Q 2969 1056 2586 465 
Q 2203 -125 1525 -125 
Q 1184 -125 923 22 
Q 663 169 495 447 
Q 328 725 261 1103 
Q 194 1481 194 1909 
z
M 731 2091 
Q 731 1497 820 1009 
Q 909 522 1117 308 
Q 1325 94 1613 94 
Q 1891 94 2077 284 
Q 2263 475 2348 937 
Q 2434 1400 2434 2081 
Q 2434 3150 2231 3662 
Q 2028 4175 1559 4175 
Q 1150 4175 940 3778 
Q 731 3381 731 2091 
z
" transform="scale(0.015625)"/>
        <path id="PalatinoLinotype-Roman-2e" d="M 800 691 
Q 950 691 1061 584 
Q 1172 478 1172 316 
Q 1172 163 1062 53 
Q 953 -56 800 -56 
Q 644 -56 534 51 
Q 425 159 425 316 
Q 425 472 534 581 
Q 644 691 800 691 
z
" transform="scale(0.015625)"/>
       </defs>
       <use xlink:href="#PalatinoLinotype-Roman-30"/>
       <use xlink:href="#PalatinoLinotype-Roman-2e" x="50"/>
       <use xlink:href="#PalatinoLinotype-Roman-30" x="75"/>
      </g>
     </g>
    </g>
    <g id="xtick_2">
     <g id="line2d_5">
      <g>
       <use xlink:href="#m6429ce6995" x="136.902263" y="273.312" style="stroke: #000000; stroke-width: 0.8"/>
      </g>
     </g>
     <g id="text_2">
      <!-- 0.2 -->
      <g transform="translate(128.152263 290.43575) scale(0.14 -0.14)">
       <defs>
        <path id="PalatinoLinotype-Roman-32" d="M 144 -31 
L 106 0 
L 106 144 
L 1153 1253 
Q 1800 1938 1990 2313 
Q 2181 2688 2181 3013 
Q 2181 3394 1950 3647 
Q 1719 3900 1325 3900 
Q 1072 3900 884 3822 
Q 697 3744 633 3647 
Q 569 3550 447 3103 
L 419 3078 
L 291 3078 
L 259 3106 
Q 331 3528 359 3941 
Q 653 4228 908 4308 
Q 1163 4388 1441 4388 
Q 1772 4388 2075 4263 
Q 2378 4138 2562 3858 
Q 2747 3578 2747 3209 
Q 2747 2934 2639 2657 
Q 2531 2381 2323 2123 
Q 2116 1866 1756 1506 
L 781 513 
L 2016 513 
Q 2584 513 2963 553 
L 2984 528 
Q 2966 422 2966 250 
Q 2966 94 2984 3 
L 2963 -31 
Q 2738 -19 2272 -9 
Q 1806 0 1656 0 
Q 1353 0 840 -8 
Q 328 -16 144 -31 
z
" transform="scale(0.015625)"/>
       </defs>
       <use xlink:href="#PalatinoLinotype-Roman-30"/>
       <use xlink:href="#PalatinoLinotype-Roman-2e" x="50"/>
       <use xlink:href="#PalatinoLinotype-Roman-32" x="75"/>
      </g>
     </g>
    </g>
    <g id="xtick_3">
     <g id="line2d_6">
      <g>
       <use xlink:href="#m6429ce6995" x="214.228581" y="273.312" style="stroke: #000000; stroke-width: 0.8"/>
      </g>
     </g>
     <g id="text_3">
      <!-- 0.4 -->
      <g transform="translate(205.478581 290.43575) scale(0.14 -0.14)">
       <defs>
        <path id="PalatinoLinotype-Roman-34" d="M 1028 -25 
L 1003 0 
L 1003 134 
L 1028 159 
Q 1491 172 1577 187 
Q 1663 203 1703 253 
Q 1744 303 1764 497 
Q 1784 691 1784 909 
L 1784 1141 
L 1100 1141 
Q 503 1141 91 1122 
L 38 1291 
Q 581 2309 1853 4241 
L 2294 4419 
L 2372 4381 
Q 2338 3850 2338 3066 
L 2328 2184 
L 2328 1538 
Q 2759 1541 2994 1556 
L 3022 1525 
Q 3016 1406 3016 1353 
Q 3019 1250 3025 1150 
L 2994 1122 
Q 2691 1141 2488 1141 
L 2328 1141 
L 2328 931 
Q 2328 581 2347 434 
Q 2366 288 2406 245 
Q 2447 203 2570 183 
Q 2694 163 2997 159 
L 3025 134 
L 3025 0 
L 3000 -25 
Q 2450 0 2078 0 
Q 1472 0 1028 -25 
z
M 450 1538 
L 1784 1538 
L 1813 3759 
Q 1513 3331 1056 2584 
Q 600 1838 450 1538 
z
" transform="scale(0.015625)"/>
       </defs>
       <use xlink:href="#PalatinoLinotype-Roman-30"/>
       <use xlink:href="#PalatinoLinotype-Roman-2e" x="50"/>
       <use xlink:href="#PalatinoLinotype-Roman-34" x="75"/>
      </g>
     </g>
    </g>
    <g id="xtick_4">
     <g id="line2d_7">
      <g>
       <use xlink:href="#m6429ce6995" x="291.554898" y="273.312" style="stroke: #000000; stroke-width: 0.8"/>
      </g>
     </g>
     <g id="text_4">
      <!-- 0.6 -->
      <g transform="translate(282.804898 290.43575) scale(0.14 -0.14)">
       <defs>
        <path id="PalatinoLinotype-Roman-36" d="M 2700 4322 
L 2700 4284 
Q 2359 4213 1923 3944 
Q 1488 3675 1191 3222 
Q 894 2769 847 2128 
Q 953 2203 1091 2309 
Q 1269 2444 1351 2494 
Q 1434 2544 1573 2581 
Q 1713 2619 1894 2619 
Q 2216 2619 2472 2476 
Q 2728 2334 2856 2057 
Q 2984 1781 2984 1413 
Q 2984 891 2731 539 
Q 2478 188 2193 36 
Q 1909 -116 1541 -116 
Q 913 -116 566 354 
Q 219 825 219 1578 
Q 219 2078 364 2539 
Q 509 3000 806 3373 
Q 1103 3747 1564 4037 
Q 2025 4328 2472 4431 
L 2700 4322 
z
M 788 1341 
Q 788 1031 877 728 
Q 966 425 1162 259 
Q 1359 94 1625 94 
Q 1853 94 2047 222 
Q 2241 350 2342 623 
Q 2444 897 2444 1200 
Q 2444 1503 2344 1742 
Q 2244 1981 2053 2114 
Q 1863 2247 1609 2247 
Q 1422 2247 1234 2156 
Q 1047 2066 945 1950 
Q 844 1834 816 1704 
Q 788 1575 788 1341 
z
" transform="scale(0.015625)"/>
       </defs>
       <use xlink:href="#PalatinoLinotype-Roman-30"/>
       <use xlink:href="#PalatinoLinotype-Roman-2e" x="50"/>
       <use xlink:href="#PalatinoLinotype-Roman-36" x="75"/>
      </g>
     </g>
    </g>
    <g id="xtick_5">
     <g id="line2d_8">
      <g>
       <use xlink:href="#m6429ce6995" x="368.881216" y="273.312" style="stroke: #000000; stroke-width: 0.8"/>
      </g>
     </g>
     <g id="text_5">
      <!-- 0.8 -->
      <g transform="translate(360.131216 290.43575) scale(0.14 -0.14)">
       <defs>
        <path id="PalatinoLinotype-Roman-38" d="M 1050 2216 
Q 703 2400 523 2639 
Q 344 2878 344 3219 
Q 344 3697 697 4039 
Q 1050 4381 1659 4381 
Q 1969 4381 2233 4273 
Q 2497 4166 2640 3952 
Q 2784 3738 2784 3475 
Q 2784 3200 2615 2948 
Q 2447 2697 2019 2438 
L 2019 2409 
Q 2384 2234 2561 2112 
Q 2738 1991 2850 1783 
Q 2963 1575 2963 1303 
Q 2963 931 2748 589 
Q 2534 247 2184 69 
Q 1834 -109 1459 -109 
Q 913 -109 556 197 
Q 200 503 200 1013 
Q 200 1425 445 1723 
Q 691 2022 1050 2188 
L 1050 2216 
z
M 1778 2516 
Q 2113 2725 2231 2936 
Q 2350 3147 2350 3391 
Q 2350 3750 2144 3959 
Q 1938 4169 1591 4169 
Q 1259 4169 1040 3983 
Q 822 3797 822 3463 
Q 822 3209 964 3023 
Q 1106 2838 1778 2516 
z
M 1303 2103 
Q 934 1884 790 1632 
Q 647 1381 647 1063 
Q 647 616 897 361 
Q 1147 106 1541 106 
Q 1809 106 2028 231 
Q 2247 356 2355 573 
Q 2463 791 2463 1047 
Q 2463 1416 2205 1622 
Q 1947 1828 1303 2103 
z
" transform="scale(0.015625)"/>
       </defs>
       <use xlink:href="#PalatinoLinotype-Roman-30"/>
       <use xlink:href="#PalatinoLinotype-Roman-2e" x="50"/>
       <use xlink:href="#PalatinoLinotype-Roman-38" x="75"/>
      </g>
     </g>
    </g>
    <g id="text_6">
     <!-- $\mathit{\rho^*}$ -->
     <g transform="translate(219.245313 309.883875) scale(0.14 -0.14)">
      <defs>
       <path id="DejaVuSerif-Italic-3c1" d="M 1134 1825 
L 1069 1497 
Q 953 897 1122 583 
Q 1291 269 1728 269 
Q 2169 269 2464 622 
Q 2759 975 2894 1663 
Q 3031 2378 2869 2703 
Q 2675 3084 2275 3084 
Q 1859 3084 1541 2738 
Q 1250 2422 1134 1825 
z
M 519 -1331 
L -56 -1331 
L 522 1638 
Q 675 2422 1022 2803 
Q 1394 3159 1622 3269 
Q 1928 3413 2331 3413 
Q 3131 3413 3423 2928 
Q 3716 2444 3564 1662 
Q 3413 881 2931 395 
Q 2450 -91 1838 -91 
Q 1453 -91 1220 57 
Q 988 206 881 519 
L 519 -1331 
z
" transform="scale(0.015625)"/>
       <path id="DejaVuSerif-2a" d="M 3097 3866 
L 1875 3297 
L 3097 2719 
L 2859 2350 
L 1772 3028 
L 1813 1838 
L 1388 1838 
L 1428 3028 
L 341 2350 
L 103 2719 
L 1325 3291 
L 103 3866 
L 341 4238 
L 1428 3559 
L 1388 4750 
L 1813 4750 
L 1772 3559 
L 2859 4238 
L 3097 3866 
z
" transform="scale(0.015625)"/>
      </defs>
      <use xlink:href="#DejaVuSerif-Italic-3c1" transform="translate(0 0.7125)"/>
      <use xlink:href="#DejaVuSerif-2a" transform="translate(76.502526 37.046875) scale(0.7)"/>
     </g>
    </g>
   </g>
   <g id="matplotlib.axis_2">
    <g id="ytick_1">
     <g id="line2d_9">
      <defs>
       <path id="m0094a55d67" d="M 0 0 
L -3.5 0 
" style="stroke: #000000; stroke-width: 0.8"/>
      </defs>
      <g>
       <use xlink:href="#m0094a55d67" x="49.645313" y="262.374565" style="stroke: #000000; stroke-width: 0.8"/>
      </g>
     </g>
     <g id="text_7">
      <!-- 0.4 -->
      <g transform="translate(25.145313 267.43644) scale(0.14 -0.14)">
       <use xlink:href="#PalatinoLinotype-Roman-30"/>
       <use xlink:href="#PalatinoLinotype-Roman-2e" x="50"/>
       <use xlink:href="#PalatinoLinotype-Roman-34" x="75"/>
      </g>
     </g>
    </g>
    <g id="ytick_2">
     <g id="line2d_10">
      <g>
       <use xlink:href="#m0094a55d67" x="49.645313" y="221.861471" style="stroke: #000000; stroke-width: 0.8"/>
      </g>
     </g>
     <g id="text_8">
      <!-- 0.5 -->
      <g transform="translate(25.145313 226.923346) scale(0.14 -0.14)">
       <defs>
        <path id="PalatinoLinotype-Roman-35" d="M 409 44 
Q 334 288 100 850 
L 106 891 
L 216 953 
L 253 944 
Q 513 472 577 408 
Q 641 344 869 258 
Q 1097 172 1350 172 
Q 1666 172 1909 309 
Q 2153 447 2272 715 
Q 2391 984 2391 1325 
Q 2391 1659 2273 1901 
Q 2156 2144 1915 2269 
Q 1675 2394 1397 2394 
Q 1222 2394 1080 2347 
Q 938 2300 842 2226 
Q 747 2153 616 2009 
L 488 2047 
L 522 2719 
Q 534 2909 534 3103 
L 534 3659 
Q 534 3909 519 4138 
Q 509 4278 509 4316 
L 550 4347 
Q 1028 4309 1641 4309 
Q 2106 4309 2756 4347 
L 2769 4316 
Q 2747 4163 2747 4031 
Q 2747 3966 2756 3813 
L 2725 3794 
Q 2369 3819 1769 3819 
Q 953 3819 822 3813 
Q 775 3444 756 2513 
Q 1013 2700 1219 2767 
Q 1425 2834 1666 2834 
Q 2006 2834 2318 2678 
Q 2631 2522 2786 2225 
Q 2941 1928 2941 1584 
Q 2941 950 2417 417 
Q 1894 -116 1078 -116 
Q 859 -116 717 -78 
Q 575 -41 409 44 
z
" transform="scale(0.015625)"/>
       </defs>
       <use xlink:href="#PalatinoLinotype-Roman-30"/>
       <use xlink:href="#PalatinoLinotype-Roman-2e" x="50"/>
       <use xlink:href="#PalatinoLinotype-Roman-35" x="75"/>
      </g>
     </g>
    </g>
    <g id="ytick_3">
     <g id="line2d_11">
      <g>
       <use xlink:href="#m0094a55d67" x="49.645313" y="181.348377" style="stroke: #000000; stroke-width: 0.8"/>
      </g>
     </g>
     <g id="text_9">
      <!-- 0.6 -->
      <g transform="translate(25.145313 186.410252) scale(0.14 -0.14)">
       <use xlink:href="#PalatinoLinotype-Roman-30"/>
       <use xlink:href="#PalatinoLinotype-Roman-2e" x="50"/>
       <use xlink:href="#PalatinoLinotype-Roman-36" x="75"/>
      </g>
     </g>
    </g>
    <g id="ytick_4">
     <g id="line2d_12">
      <g>
       <use xlink:href="#m0094a55d67" x="49.645313" y="140.835283" style="stroke: #000000; stroke-width: 0.8"/>
      </g>
     </g>
     <g id="text_10">
      <!-- 0.7 -->
      <g transform="translate(25.145313 145.897158) scale(0.14 -0.14)">
       <defs>
        <path id="PalatinoLinotype-Roman-37" d="M 422 -25 
L 356 41 
Q 469 209 822 766 
L 1394 1678 
L 1931 2556 
L 2400 3363 
Q 2550 3625 2638 3788 
L 2606 3819 
L 1638 3819 
Q 1272 3819 987 3806 
Q 703 3794 653 3770 
Q 603 3747 583 3712 
Q 563 3678 538 3475 
L 481 3034 
L 453 3009 
L 322 3009 
L 294 3034 
L 309 3891 
Q 309 4038 294 4344 
L 356 4375 
Q 528 4356 1054 4334 
Q 1581 4313 1759 4313 
Q 2394 4313 3144 4356 
L 3169 4331 
L 3169 4169 
L 2719 3372 
Q 2309 2641 1784 1639 
Q 1259 638 1019 0 
L 988 -25 
Q 809 -9 719 -9 
Q 575 -9 422 -25 
z
" transform="scale(0.015625)"/>
       </defs>
       <use xlink:href="#PalatinoLinotype-Roman-30"/>
       <use xlink:href="#PalatinoLinotype-Roman-2e" x="50"/>
       <use xlink:href="#PalatinoLinotype-Roman-37" x="75"/>
      </g>
     </g>
    </g>
    <g id="ytick_5">
     <g id="line2d_13">
      <g>
       <use xlink:href="#m0094a55d67" x="49.645313" y="100.322188" style="stroke: #000000; stroke-width: 0.8"/>
      </g>
     </g>
     <g id="text_11">
      <!-- 0.8 -->
      <g transform="translate(25.145313 105.384063) scale(0.14 -0.14)">
       <use xlink:href="#PalatinoLinotype-Roman-30"/>
       <use xlink:href="#PalatinoLinotype-Roman-2e" x="50"/>
       <use xlink:href="#PalatinoLinotype-Roman-38" x="75"/>
      </g>
     </g>
    </g>
    <g id="ytick_6">
     <g id="line2d_14">
      <g>
       <use xlink:href="#m0094a55d67" x="49.645313" y="59.809094" style="stroke: #000000; stroke-width: 0.8"/>
      </g>
     </g>
     <g id="text_12">
      <!-- 0.9 -->
      <g transform="translate(25.145313 64.870969) scale(0.14 -0.14)">
       <defs>
        <path id="PalatinoLinotype-Roman-39" d="M 416 -25 
L 416 34 
Q 1284 234 1781 798 
Q 2278 1363 2341 2178 
Q 1881 1631 1313 1631 
Q 953 1631 686 1803 
Q 419 1975 291 2250 
Q 163 2525 163 2894 
Q 163 3572 570 3981 
Q 978 4391 1581 4391 
Q 2191 4391 2567 3950 
Q 2944 3509 2944 2681 
Q 2944 2316 2875 1980 
Q 2806 1644 2615 1291 
Q 2425 938 2111 634 
Q 1797 331 1401 129 
Q 1006 -72 622 -125 
L 416 -25 
z
M 703 3097 
Q 703 2825 798 2564 
Q 894 2303 1091 2161 
Q 1288 2019 1553 2019 
Q 1922 2019 2147 2267 
Q 2372 2516 2372 3009 
Q 2372 3522 2150 3848 
Q 1928 4175 1541 4175 
Q 1169 4175 936 3900 
Q 703 3625 703 3097 
z
" transform="scale(0.015625)"/>
       </defs>
       <use xlink:href="#PalatinoLinotype-Roman-30"/>
       <use xlink:href="#PalatinoLinotype-Roman-2e" x="50"/>
       <use xlink:href="#PalatinoLinotype-Roman-39" x="75"/>
      </g>
     </g>
    </g>
    <g id="ytick_7">
     <g id="line2d_15">
      <g>
       <use xlink:href="#m0094a55d67" x="49.645313" y="19.296" style="stroke: #000000; stroke-width: 0.8"/>
      </g>
     </g>
     <g id="text_13">
      <!-- 1.0 -->
      <g transform="translate(25.145313 24.357875) scale(0.14 -0.14)">
       <defs>
        <path id="PalatinoLinotype-Roman-31" d="M 478 3531 
L 422 3550 
L 391 3806 
L 422 3838 
Q 734 3928 1212 4128 
Q 1691 4328 1897 4434 
L 1978 4403 
Q 1928 3034 1928 2759 
L 1928 1600 
Q 1928 1172 1937 795 
Q 1947 419 1965 351 
Q 1984 284 2029 246 
Q 2075 209 2156 198 
Q 2238 188 2641 166 
L 2663 141 
L 2663 0 
L 2641 -25 
Q 1956 0 1675 0 
Q 1463 0 634 -25 
L 613 0 
L 613 141 
L 638 166 
Q 1106 200 1173 215 
Q 1241 231 1277 270 
Q 1313 309 1334 418 
Q 1356 528 1370 1065 
Q 1384 1603 1384 1616 
L 1384 2847 
Q 1384 3753 1379 3831 
Q 1375 3909 1325 3909 
Q 1313 3909 1291 3903 
Q 1269 3897 1153 3847 
L 844 3709 
Q 650 3625 478 3531 
z
" transform="scale(0.015625)"/>
       </defs>
       <use xlink:href="#PalatinoLinotype-Roman-31"/>
       <use xlink:href="#PalatinoLinotype-Roman-2e" x="50"/>
       <use xlink:href="#PalatinoLinotype-Roman-30" x="75"/>
      </g>
     </g>
    </g>
    <g id="text_14">
     <!-- $T^*$ -->
     <g transform="translate(17.255938 148.586) rotate(-90) scale(0.14 -0.14)">
      <defs>
       <path id="PalatinoLinotype-Italic-54" d="M 863 -25 
L 841 0 
L 853 138 
L 878 159 
Q 1253 188 1320 214 
Q 1388 241 1411 272 
Q 1434 303 1462 401 
Q 1491 500 1622 1156 
Q 1753 1813 1890 2648 
Q 2028 3484 2097 4116 
Q 1066 4116 933 4066 
Q 800 4016 669 3391 
L 641 3366 
L 516 3366 
L 491 3391 
Q 588 4184 594 4384 
L 625 4416 
L 853 4400 
Q 903 4397 1066 4394 
L 2372 4369 
L 3944 4397 
Q 3972 4397 4156 4416 
L 4184 4384 
Q 4103 4078 4022 3394 
L 3991 3366 
L 3866 3366 
L 3841 3394 
Q 3844 3447 3850 3775 
Q 3847 3981 3797 4048 
Q 3747 4116 2631 4116 
Q 2600 3981 2497 3397 
L 2291 2238 
Q 2253 2028 2133 1262 
Q 2013 497 2013 344 
Q 2013 259 2075 218 
Q 2138 178 2597 163 
L 2622 134 
L 2609 0 
L 2581 -25 
Q 2056 0 1734 0 
Q 1266 0 863 -25 
z
" transform="scale(0.015625)"/>
       <path id="PalatinoLinotype-Italic-2a" d="M 669 2653 
Q 625 2781 506 3013 
L 531 3056 
Q 613 3094 873 3201 
Q 1134 3309 1341 3409 
Q 1203 3481 915 3620 
Q 628 3759 522 3803 
L 497 3866 
Q 500 3869 597 4041 
L 703 4222 
L 769 4219 
Q 1081 3872 1428 3553 
Q 1481 3847 1509 4048 
Q 1538 4250 1569 4450 
L 1625 4484 
Q 1828 4419 2019 4375 
L 2028 4319 
Q 1653 3650 1578 3491 
Q 1666 3500 2466 3641 
L 2503 3619 
Q 2509 3503 2553 3247 
L 2506 3213 
Q 1900 3303 1588 3325 
Q 1694 3100 1800 2922 
Q 1994 2591 2000 2566 
L 1988 2528 
Q 1669 2375 1613 2334 
L 1566 2369 
Q 1497 2875 1425 3266 
Q 1191 3063 931 2819 
L 741 2644 
L 669 2653 
z
" transform="scale(0.015625)"/>
      </defs>
      <use xlink:href="#PalatinoLinotype-Italic-54" transform="translate(0 0.870313)"/>
      <use xlink:href="#PalatinoLinotype-Italic-2a" transform="translate(75.235352 33.95625) scale(0.7)"/>
     </g>
    </g>
   </g>
   <g id="patch_3">
    <path d="M 49.645313 273.312 
L 49.645313 7.2 
" style="fill: none; stroke: #000000; stroke-width: 0.8; stroke-linejoin: miter; stroke-linecap: square"/>
   </g>
   <g id="patch_4">
    <path d="M 406.765313 273.312 
L 406.765313 7.2 
" style="fill: none; stroke: #000000; stroke-width: 0.8; stroke-linejoin: miter; stroke-linecap: square"/>
   </g>
   <g id="patch_5">
    <path d="M 49.645313 273.312 
L 406.765313 273.312 
" style="fill: none; stroke: #000000; stroke-width: 0.8; stroke-linejoin: miter; stroke-linecap: square"/>
   </g>
   <g id="patch_6">
    <path d="M 49.645313 7.2 
L 406.765313 7.2 
" style="fill: none; stroke: #000000; stroke-width: 0.8; stroke-linejoin: miter; stroke-linecap: square"/>
   </g>
  </g>
 </g>
 <defs>
  <clipPath id="p009ba1c514">
   <rect x="49.645313" y="7.2" width="357.12" height="266.112"/>
  </clipPath>
 </defs>
</svg>
