<?xml version="1.0" encoding="utf-8" standalone="no"?>
<!DOCTYPE svg PUBLIC "-//W3C//DTD SVG 1.1//EN"
  "http://www.w3.org/Graphics/SVG/1.1/DTD/svg11.dtd">
<svg xmlns:xlink="http://www.w3.org/1999/xlink" width="335.845313pt" height="276.62125pt" viewBox="0 0 335.845313 276.62125" xmlns="http://www.w3.org/2000/svg" version="1.1">
 <metadata>
  <rdf:RDF xmlns:dc="http://purl.org/dc/elements/1.1/" xmlns:cc="http://creativecommons.org/ns#" xmlns:rdf="http://www.w3.org/1999/02/22-rdf-syntax-ns#">
   <cc:Work>
    <dc:type rdf:resource="http://purl.org/dc/dcmitype/StillImage"/>
    <dc:date>2023-12-11T14:39:36.244314</dc:date>
    <dc:format>image/svg+xml</dc:format>
    <dc:creator>
     <cc:Agent>
      <dc:title>Matplotlib v3.8.2, https://matplotlib.org/</dc:title>
     </cc:Agent>
    </dc:creator>
   </cc:Work>
  </rdf:RDF>
 </metadata>
 <defs>
  <style type="text/css">*{stroke-linejoin: round; stroke-linecap: butt}</style>
 </defs>
 <g id="figure_1">
  <g id="patch_1">
   <path d="M 0 276.62125 
L 335.845313 276.62125 
L 335.845313 0 
L 0 0 
z
" style="fill: #ffffff"/>
  </g>
  <g id="axes_1">
   <g id="patch_2">
    <path d="M 49.645313 228.96 
L 328.645312 228.96 
L 328.645312 7.2 
L 49.645313 7.2 
z
" style="fill: #ffffff"/>
   </g>
   <g id="line2d_1">
    <path d="M 62.327131 213.11935 
L 63.39409 210.516739 
L 64.461049 207.986552 
L 65.528008 205.581568 
L 66.594967 203.33924 
L 67.661927 201.280458 
L 68.728886 199.411608 
L 69.795845 197.728291 
L 70.862804 196.219218 
L 71.929763 194.869454 
L 72.996722 193.662747 
L 74.063682 192.583011 
L 75.130641 191.615164 
L 76.1976 190.74553 
L 77.264559 189.961962 
L 78.331518 189.253814 
L 79.398477 188.611829 
L 80.465437 188.027997 
L 81.532396 187.495397 
L 82.599355 187.008058 
L 83.666314 186.560821 
L 84.733273 186.149222 
L 85.800233 185.769394 
L 86.867192 185.417973 
L 87.934151 185.09203 
L 89.00111 184.789007 
L 90.068069 184.50666 
L 91.135028 184.243016 
L 92.201988 183.996339 
L 93.268947 183.765092 
L 94.335906 183.547912 
L 95.402865 183.343588 
L 96.469824 183.151039 
L 97.536783 182.969302 
L 98.603743 182.797509 
L 99.670702 182.634885 
L 100.737661 182.480728 
L 101.80462 182.334406 
L 102.871579 182.195348 
L 103.938539 182.063035 
L 105.005498 181.936996 
L 106.072457 181.816802 
L 107.139416 181.70206 
L 108.206375 181.592415 
L 109.273334 181.487537 
L 110.340294 181.387128 
L 111.407253 181.290909 
L 112.474212 181.198629 
L 113.541171 181.110052 
L 114.60813 181.024962 
L 115.675089 180.943159 
L 116.742049 180.86446 
L 117.809008 180.78869 
L 118.875967 180.715693 
L 119.942926 180.64532 
L 121.009885 180.577432 
L 122.076845 180.511902 
L 123.143804 180.44861 
L 124.210763 180.387443 
L 125.277722 180.328299 
L 126.344681 180.271078 
L 127.41164 180.215689 
L 128.4786 180.162045 
L 129.545559 180.110068 
L 130.612518 180.059679 
L 131.679477 180.010808 
L 132.746436 179.963389 
L 133.813395 179.917356 
L 134.880355 179.872652 
L 135.947314 179.829219 
L 137.014273 179.787005 
L 138.081232 179.745958 
L 139.148191 179.706032 
L 140.215151 179.667182 
L 141.28211 179.629364 
L 142.349069 179.592539 
L 143.416028 179.556667 
L 144.482987 179.521713 
L 145.549946 179.487642 
L 146.616906 179.454421 
L 147.683865 179.422019 
L 148.750824 179.390405 
L 149.817783 179.359553 
L 150.884742 179.329433 
L 151.951701 179.300022 
L 153.018661 179.271294 
L 154.08562 179.243225 
L 155.152579 179.215794 
L 156.219538 179.188979 
L 157.286497 179.16276 
L 158.353456 179.137117 
L 159.420416 179.11203 
L 160.487375 179.087484 
L 161.554334 179.063459 
L 162.621293 179.03994 
L 163.688252 179.016912 
L 164.755212 178.994358 
L 165.822171 178.972264 
L 166.88913 178.950617 
L 167.956089 178.929403 
" clip-path="url(#p434b06ff1c)" style="fill: none; stroke: #1f77b4; stroke-width: 1.5; stroke-linecap: square"/>
   </g>
   <g id="line2d_2">
    <path d="M 167.956089 178.981808 
L 169.237538 179.058685 
L 170.518988 179.136917 
L 171.800437 179.216541 
L 173.081887 179.297595 
L 174.363336 179.380117 
L 175.644785 179.464147 
L 176.926235 179.549727 
L 178.207684 179.6369 
L 179.489134 179.725711 
L 180.770583 179.816207 
L 182.052032 179.908435 
L 183.333482 180.002446 
L 184.614931 180.098292 
L 185.896381 180.196027 
L 187.17783 180.295707 
L 188.459279 180.397391 
L 189.740729 180.501139 
L 191.022178 180.607016 
L 192.303628 180.715086 
L 193.585077 180.825419 
L 194.866526 180.938087 
L 196.147976 181.053163 
L 197.429425 181.170727 
L 198.710875 181.290858 
L 199.992324 181.413642 
L 201.273773 181.539168 
L 202.555223 181.667528 
L 203.836672 181.798819 
L 205.118122 181.933141 
L 206.399571 182.070602 
L 207.68102 182.211311 
L 208.96247 182.355386 
L 210.243919 182.502947 
L 211.525369 182.654122 
L 212.806818 182.809045 
L 214.088267 182.967857 
L 215.369717 183.130705 
L 216.651166 183.297746 
L 217.932616 183.469141 
L 219.214065 183.645062 
L 220.495514 183.825691 
L 221.776964 184.011219 
L 223.058413 184.201846 
L 224.339863 184.397784 
L 225.621312 184.599257 
L 226.902761 184.806503 
L 228.184211 185.01977 
L 229.46566 185.239325 
L 230.747109 185.465448 
L 232.028559 185.698436 
L 233.310008 185.938605 
L 234.591458 186.18629 
L 235.872907 186.441847 
L 237.154356 186.705654 
L 238.435806 186.978116 
L 239.717255 187.259662 
L 240.998705 187.55075 
L 242.280154 187.851871 
L 243.561603 188.163548 
L 244.843053 188.486341 
L 246.124502 188.820851 
L 247.405952 189.167721 
L 248.687401 189.527644 
L 249.96885 189.901362 
L 251.2503 190.289678 
L 252.531749 190.693453 
L 253.813199 191.11362 
L 255.094648 191.551187 
L 256.376097 192.007243 
L 257.657547 192.482972 
L 258.938996 192.979658 
L 260.220446 193.498698 
L 261.501895 194.041614 
L 262.783344 194.610068 
L 264.064794 195.205876 
L 265.346243 195.831028 
L 266.627693 196.487709 
L 267.909142 197.178322 
L 269.190591 197.905514 
L 270.472041 198.672211 
L 271.75349 199.481651 
L 273.03494 200.337427 
L 274.316389 201.243536 
L 275.597838 202.204436 
L 276.879288 203.225109 
L 278.160737 204.311144 
L 279.442187 205.468821 
L 280.723636 206.705224 
L 282.005085 208.028362 
L 283.286535 209.447319 
L 284.567984 210.972433 
L 285.849434 212.615505 
L 287.130883 214.390047 
L 288.412332 216.311581 
" clip-path="url(#p434b06ff1c)" style="fill: none; stroke: #1f77b4; stroke-width: 1.5; stroke-linecap: square"/>
   </g>
   <g id="line2d_3">
    <path d="M 289.276993 218.88 
L 291.226718 212.501876 
L 293.165205 205.387643 
L 295.098072 197.43342 
L 297.025322 188.543058 
L 298.946952 178.609769 
L 300.862964 167.514992 
L 302.776166 155.10787 
L 304.686558 141.23551 
L 306.596951 125.703329 
L 308.504534 108.339774 
L 310.412118 88.901908 
L 312.316892 67.175814 
L 314.221666 42.858288 
L 315.949447 18.30056 
L 315.949447 18.30056 
" clip-path="url(#p434b06ff1c)" style="fill: none; stroke: #1f77b4; stroke-width: 1.5; stroke-linecap: square"/>
   </g>
   <g id="PolyCollection_1"/>
   <g id="PolyCollection_2"/>
   <g id="PolyCollection_3"/>
   <g id="PathCollection_1">
    <defs>
     <path id="m7ffdf9acf1" d="M 0 -3 
L -0.673542 -0.927051 
L -2.85317 -0.927051 
L -1.089814 0.354102 
L -1.763356 2.427051 
L -0 1.145898 
L 1.763356 2.427051 
L 1.089814 0.354102 
L 2.85317 -0.927051 
L 0.673542 -0.927051 
z
" style="stroke: #000000"/>
    </defs>
    <g clip-path="url(#p434b06ff1c)">
     <use xlink:href="#m7ffdf9acf1" x="167.956089" y="178.657158" style="stroke: #000000"/>
    </g>
   </g>
   <g id="PathCollection_2">
    <path d="M 275.488 199.965015 
L 272.488 205.965015 
L 278.488 205.965015 
L 275.488 199.965015 
z
" clip-path="url(#p434b06ff1c)" style="fill: none; stroke: #ff0000"/>
    <path d="M 274.883888 196.588924 
L 271.883888 202.588924 
L 277.883888 202.588924 
L 274.883888 196.588924 
z
" clip-path="url(#p434b06ff1c)" style="fill: none; stroke: #ff0000"/>
    <path d="M 268.842769 193.212833 
L 265.842769 199.212833 
L 271.842769 199.212833 
L 268.842769 193.212833 
z
" clip-path="url(#p434b06ff1c)" style="fill: none; stroke: #ff0000"/>
    <path d="M 262.801651 189.836741 
L 259.801651 195.836741 
L 265.801651 195.836741 
L 262.801651 189.836741 
z
" clip-path="url(#p434b06ff1c)" style="fill: none; stroke: #ff0000"/>
    <path d="M 253.739973 186.46065 
L 250.739973 192.46065 
L 256.739973 192.46065 
L 253.739973 186.46065 
z
" clip-path="url(#p434b06ff1c)" style="fill: none; stroke: #ff0000"/>
    <path d="M 253.739973 184.772605 
L 250.739973 190.772605 
L 256.739973 190.772605 
L 253.739973 184.772605 
z
" clip-path="url(#p434b06ff1c)" style="fill: none; stroke: #ff0000"/>
    <path d="M 253.739973 183.084559 
L 250.739973 189.084559 
L 256.739973 189.084559 
L 253.739973 183.084559 
z
" clip-path="url(#p434b06ff1c)" style="fill: none; stroke: #ff0000"/>
    <path d="M 250.719414 181.396513 
L 247.719414 187.396513 
L 253.719414 187.396513 
L 250.719414 181.396513 
z
" clip-path="url(#p434b06ff1c)" style="fill: none; stroke: #ff0000"/>
    <path d="M 187.287669 178.020422 
L 184.287669 184.020422 
L 190.287669 184.020422 
L 187.287669 178.020422 
z
" clip-path="url(#p434b06ff1c)" style="fill: none; stroke: #ff0000"/>
    <path d="M 287.872293 211.781334 
L 284.872293 217.781334 
L 290.872293 217.781334 
L 287.872293 211.781334 
z
" clip-path="url(#p434b06ff1c)" style="fill: none; stroke: #ff0000"/>
    <path d="M 286.059957 208.405243 
L 283.059957 214.405243 
L 289.059957 214.405243 
L 286.059957 208.405243 
z
" clip-path="url(#p434b06ff1c)" style="fill: none; stroke: #ff0000"/>
    <path d="M 280.320895 205.029152 
L 277.320895 211.029152 
L 283.320895 211.029152 
L 280.320895 205.029152 
z
" clip-path="url(#p434b06ff1c)" style="fill: none; stroke: #ff0000"/>
    <path d="M 276.394168 201.653061 
L 273.394168 207.653061 
L 279.394168 207.653061 
L 276.394168 201.653061 
z
" clip-path="url(#p434b06ff1c)" style="fill: none; stroke: #ff0000"/>
    <path d="M 272.467441 199.965015 
L 269.467441 205.965015 
L 275.467441 205.965015 
L 272.467441 199.965015 
z
" clip-path="url(#p434b06ff1c)" style="fill: none; stroke: #ff0000"/>
    <path d="M 270.655105 198.276969 
L 267.655105 204.276969 
L 273.655105 204.276969 
L 270.655105 198.276969 
z
" clip-path="url(#p434b06ff1c)" style="fill: none; stroke: #ff0000"/>
    <path d="M 268.238658 196.588924 
L 265.238658 202.588924 
L 271.238658 202.588924 
L 268.238658 196.588924 
z
" clip-path="url(#p434b06ff1c)" style="fill: none; stroke: #ff0000"/>
   </g>
   <g id="PathCollection_3">
    <path d="M 62.327131 211.781334 
L 59.327131 217.781334 
L 65.327131 217.781334 
L 62.327131 211.781334 
z
" clip-path="url(#p434b06ff1c)" style="fill: none; stroke: #ff0000"/>
    <path d="M 62.629187 208.405243 
L 59.629187 214.405243 
L 65.629187 214.405243 
L 62.629187 208.405243 
z
" clip-path="url(#p434b06ff1c)" style="fill: none; stroke: #ff0000"/>
    <path d="M 64.501933 205.029152 
L 61.501933 211.029152 
L 67.501933 211.029152 
L 64.501933 205.029152 
z
" clip-path="url(#p434b06ff1c)" style="fill: none; stroke: #ff0000"/>
    <path d="M 65.679951 201.653061 
L 62.679951 207.653061 
L 68.679951 207.653061 
L 65.679951 201.653061 
z
" clip-path="url(#p434b06ff1c)" style="fill: none; stroke: #ff0000"/>
    <path d="M 66.012213 199.965015 
L 63.012213 205.965015 
L 69.012213 205.965015 
L 66.012213 199.965015 
z
" clip-path="url(#p434b06ff1c)" style="fill: none; stroke: #ff0000"/>
    <path d="M 66.465297 199.965015 
L 63.465297 205.965015 
L 69.465297 205.965015 
L 66.465297 199.965015 
z
" clip-path="url(#p434b06ff1c)" style="fill: none; stroke: #ff0000"/>
    <path d="M 67.643315 198.276969 
L 64.643315 204.276969 
L 70.643315 204.276969 
L 67.643315 198.276969 
z
" clip-path="url(#p434b06ff1c)" style="fill: none; stroke: #ff0000"/>
    <path d="M 68.277632 196.588924 
L 65.277632 202.588924 
L 71.277632 202.588924 
L 68.277632 196.588924 
z
" clip-path="url(#p434b06ff1c)" style="fill: none; stroke: #ff0000"/>
    <path d="M 69.66709 196.588924 
L 66.66709 202.588924 
L 72.66709 202.588924 
L 69.66709 196.588924 
z
" clip-path="url(#p434b06ff1c)" style="fill: none; stroke: #ff0000"/>
    <path d="M 70.089968 193.888051 
L 67.089968 199.888051 
L 73.089968 199.888051 
L 70.089968 193.888051 
z
" clip-path="url(#p434b06ff1c)" style="fill: none; stroke: #ff0000"/>
    <path d="M 71.690864 194.900878 
L 68.690864 200.900878 
L 74.690864 200.900878 
L 71.690864 194.900878 
z
" clip-path="url(#p434b06ff1c)" style="fill: none; stroke: #ff0000"/>
    <path d="M 72.506415 193.212833 
L 69.506415 199.212833 
L 75.506415 199.212833 
L 72.506415 193.212833 
z
" clip-path="url(#p434b06ff1c)" style="fill: none; stroke: #ff0000"/>
    <path d="M 73.412583 189.836741 
L 70.412583 195.836741 
L 76.412583 195.836741 
L 73.412583 189.836741 
z
" clip-path="url(#p434b06ff1c)" style="fill: none; stroke: #ff0000"/>
    <path d="M 76.735198 186.46065 
L 73.735198 192.46065 
L 79.735198 192.46065 
L 76.735198 186.46065 
z
" clip-path="url(#p434b06ff1c)" style="fill: none; stroke: #ff0000"/>
    <path d="M 78.547534 184.772605 
L 75.547534 190.772605 
L 81.547534 190.772605 
L 78.547534 184.772605 
z
" clip-path="url(#p434b06ff1c)" style="fill: none; stroke: #ff0000"/>
    <path d="M 84.588653 183.084559 
L 81.588653 189.084559 
L 87.588653 189.084559 
L 84.588653 183.084559 
z
" clip-path="url(#p434b06ff1c)" style="fill: none; stroke: #ff0000"/>
    <path d="M 84.588653 181.396513 
L 81.588653 187.396513 
L 87.588653 187.396513 
L 84.588653 181.396513 
z
" clip-path="url(#p434b06ff1c)" style="fill: none; stroke: #ff0000"/>
   </g>
   <g id="PathCollection_4">
    <path d="M 294.819579 199.965015 
L 291.819579 205.965015 
L 297.819579 205.965015 
L 294.819579 199.965015 
z
" clip-path="url(#p434b06ff1c)" style="fill: none; stroke: #ff0000"/>
    <path d="M 299.350418 166.204103 
L 296.350418 172.204103 
L 302.350418 172.204103 
L 299.350418 166.204103 
z
" clip-path="url(#p434b06ff1c)" style="fill: none; stroke: #ff0000"/>
    <path d="M 307.807984 115.562735 
L 304.807984 121.562735 
L 310.807984 121.562735 
L 307.807984 115.562735 
z
" clip-path="url(#p434b06ff1c)" style="fill: none; stroke: #ff0000"/>
    <path d="M 315.963494 14.28 
L 312.963494 20.28 
L 318.963494 20.28 
L 315.963494 14.28 
z
" clip-path="url(#p434b06ff1c)" style="fill: none; stroke: #ff0000"/>
   </g>
   <g id="PathCollection_5">
    <defs>
     <path id="mc20239ea5b" d="M 0 -3 
L -3 3 
L 3 3 
z
" style="stroke: #008000"/>
    </defs>
    <g clip-path="url(#p434b06ff1c)">
     <use xlink:href="#mc20239ea5b" x="289.524146" y="218.11162" style="fill: #008000; stroke: #008000"/>
    </g>
   </g>
   <g id="matplotlib.axis_1">
    <g id="xtick_1">
     <g id="line2d_4">
      <defs>
       <path id="mc29f19d59b" d="M 0 0 
L 0 3.5 
" style="stroke: #000000; stroke-width: 0.8"/>
      </defs>
      <g>
       <use xlink:href="#mc29f19d59b" x="57.403619" y="228.96" style="stroke: #000000; stroke-width: 0.8"/>
      </g>
     </g>
     <g id="text_1">
      <!-- 0.0 -->
      <g transform="translate(48.653619 246.08375) scale(0.14 -0.14)">
       <defs>
        <path id="PalatinoLinotype-Roman-30" d="M 194 1909 
Q 194 2466 250 2911 
Q 306 3356 498 3704 
Q 691 4053 980 4226 
Q 1269 4400 1638 4400 
Q 2056 4400 2373 4184 
Q 2691 3969 2830 3522 
Q 2969 3075 2969 2306 
Q 2969 1056 2586 465 
Q 2203 -125 1525 -125 
Q 1184 -125 923 22 
Q 663 169 495 447 
Q 328 725 261 1103 
Q 194 1481 194 1909 
z
M 731 2091 
Q 731 1497 820 1009 
Q 909 522 1117 308 
Q 1325 94 1613 94 
Q 1891 94 2077 284 
Q 2263 475 2348 937 
Q 2434 1400 2434 2081 
Q 2434 3150 2231 3662 
Q 2028 4175 1559 4175 
Q 1150 4175 940 3778 
Q 731 3381 731 2091 
z
" transform="scale(0.015625)"/>
        <path id="PalatinoLinotype-Roman-2e" d="M 800 691 
Q 950 691 1061 584 
Q 1172 478 1172 316 
Q 1172 163 1062 53 
Q 953 -56 800 -56 
Q 644 -56 534 51 
Q 425 159 425 316 
Q 425 472 534 581 
Q 644 691 800 691 
z
" transform="scale(0.015625)"/>
       </defs>
       <use xlink:href="#PalatinoLinotype-Roman-30"/>
       <use xlink:href="#PalatinoLinotype-Roman-2e" x="50"/>
       <use xlink:href="#PalatinoLinotype-Roman-30" x="75"/>
      </g>
     </g>
    </g>
    <g id="xtick_2">
     <g id="line2d_5">
      <g>
       <use xlink:href="#mc29f19d59b" x="117.814805" y="228.96" style="stroke: #000000; stroke-width: 0.8"/>
      </g>
     </g>
     <g id="text_2">
      <!-- 0.2 -->
      <g transform="translate(109.064805 246.08375) scale(0.14 -0.14)">
       <defs>
        <path id="PalatinoLinotype-Roman-32" d="M 144 -31 
L 106 0 
L 106 144 
L 1153 1253 
Q 1800 1938 1990 2313 
Q 2181 2688 2181 3013 
Q 2181 3394 1950 3647 
Q 1719 3900 1325 3900 
Q 1072 3900 884 3822 
Q 697 3744 633 3647 
Q 569 3550 447 3103 
L 419 3078 
L 291 3078 
L 259 3106 
Q 331 3528 359 3941 
Q 653 4228 908 4308 
Q 1163 4388 1441 4388 
Q 1772 4388 2075 4263 
Q 2378 4138 2562 3858 
Q 2747 3578 2747 3209 
Q 2747 2934 2639 2657 
Q 2531 2381 2323 2123 
Q 2116 1866 1756 1506 
L 781 513 
L 2016 513 
Q 2584 513 2963 553 
L 2984 528 
Q 2966 422 2966 250 
Q 2966 94 2984 3 
L 2963 -31 
Q 2738 -19 2272 -9 
Q 1806 0 1656 0 
Q 1353 0 840 -8 
Q 328 -16 144 -31 
z
" transform="scale(0.015625)"/>
       </defs>
       <use xlink:href="#PalatinoLinotype-Roman-30"/>
       <use xlink:href="#PalatinoLinotype-Roman-2e" x="50"/>
       <use xlink:href="#PalatinoLinotype-Roman-32" x="75"/>
      </g>
     </g>
    </g>
    <g id="xtick_3">
     <g id="line2d_6">
      <g>
       <use xlink:href="#mc29f19d59b" x="178.225991" y="228.96" style="stroke: #000000; stroke-width: 0.8"/>
      </g>
     </g>
     <g id="text_3">
      <!-- 0.4 -->
      <g transform="translate(169.475991 246.08375) scale(0.14 -0.14)">
       <defs>
        <path id="PalatinoLinotype-Roman-34" d="M 1028 -25 
L 1003 0 
L 1003 134 
L 1028 159 
Q 1491 172 1577 187 
Q 1663 203 1703 253 
Q 1744 303 1764 497 
Q 1784 691 1784 909 
L 1784 1141 
L 1100 1141 
Q 503 1141 91 1122 
L 38 1291 
Q 581 2309 1853 4241 
L 2294 4419 
L 2372 4381 
Q 2338 3850 2338 3066 
L 2328 2184 
L 2328 1538 
Q 2759 1541 2994 1556 
L 3022 1525 
Q 3016 1406 3016 1353 
Q 3019 1250 3025 1150 
L 2994 1122 
Q 2691 1141 2488 1141 
L 2328 1141 
L 2328 931 
Q 2328 581 2347 434 
Q 2366 288 2406 245 
Q 2447 203 2570 183 
Q 2694 163 2997 159 
L 3025 134 
L 3025 0 
L 3000 -25 
Q 2450 0 2078 0 
Q 1472 0 1028 -25 
z
M 450 1538 
L 1784 1538 
L 1813 3759 
Q 1513 3331 1056 2584 
Q 600 1838 450 1538 
z
" transform="scale(0.015625)"/>
       </defs>
       <use xlink:href="#PalatinoLinotype-Roman-30"/>
       <use xlink:href="#PalatinoLinotype-Roman-2e" x="50"/>
       <use xlink:href="#PalatinoLinotype-Roman-34" x="75"/>
      </g>
     </g>
    </g>
    <g id="xtick_4">
     <g id="line2d_7">
      <g>
       <use xlink:href="#mc29f19d59b" x="238.637176" y="228.96" style="stroke: #000000; stroke-width: 0.8"/>
      </g>
     </g>
     <g id="text_4">
      <!-- 0.6 -->
      <g transform="translate(229.887176 246.08375) scale(0.14 -0.14)">
       <defs>
        <path id="PalatinoLinotype-Roman-36" d="M 2700 4322 
L 2700 4284 
Q 2359 4213 1923 3944 
Q 1488 3675 1191 3222 
Q 894 2769 847 2128 
Q 953 2203 1091 2309 
Q 1269 2444 1351 2494 
Q 1434 2544 1573 2581 
Q 1713 2619 1894 2619 
Q 2216 2619 2472 2476 
Q 2728 2334 2856 2057 
Q 2984 1781 2984 1413 
Q 2984 891 2731 539 
Q 2478 188 2193 36 
Q 1909 -116 1541 -116 
Q 913 -116 566 354 
Q 219 825 219 1578 
Q 219 2078 364 2539 
Q 509 3000 806 3373 
Q 1103 3747 1564 4037 
Q 2025 4328 2472 4431 
L 2700 4322 
z
M 788 1341 
Q 788 1031 877 728 
Q 966 425 1162 259 
Q 1359 94 1625 94 
Q 1853 94 2047 222 
Q 2241 350 2342 623 
Q 2444 897 2444 1200 
Q 2444 1503 2344 1742 
Q 2244 1981 2053 2114 
Q 1863 2247 1609 2247 
Q 1422 2247 1234 2156 
Q 1047 2066 945 1950 
Q 844 1834 816 1704 
Q 788 1575 788 1341 
z
" transform="scale(0.015625)"/>
       </defs>
       <use xlink:href="#PalatinoLinotype-Roman-30"/>
       <use xlink:href="#PalatinoLinotype-Roman-2e" x="50"/>
       <use xlink:href="#PalatinoLinotype-Roman-36" x="75"/>
      </g>
     </g>
    </g>
    <g id="xtick_5">
     <g id="line2d_8">
      <g>
       <use xlink:href="#mc29f19d59b" x="299.048362" y="228.96" style="stroke: #000000; stroke-width: 0.8"/>
      </g>
     </g>
     <g id="text_5">
      <!-- 0.8 -->
      <g transform="translate(290.298362 246.08375) scale(0.14 -0.14)">
       <defs>
        <path id="PalatinoLinotype-Roman-38" d="M 1050 2216 
Q 703 2400 523 2639 
Q 344 2878 344 3219 
Q 344 3697 697 4039 
Q 1050 4381 1659 4381 
Q 1969 4381 2233 4273 
Q 2497 4166 2640 3952 
Q 2784 3738 2784 3475 
Q 2784 3200 2615 2948 
Q 2447 2697 2019 2438 
L 2019 2409 
Q 2384 2234 2561 2112 
Q 2738 1991 2850 1783 
Q 2963 1575 2963 1303 
Q 2963 931 2748 589 
Q 2534 247 2184 69 
Q 1834 -109 1459 -109 
Q 913 -109 556 197 
Q 200 503 200 1013 
Q 200 1425 445 1723 
Q 691 2022 1050 2188 
L 1050 2216 
z
M 1778 2516 
Q 2113 2725 2231 2936 
Q 2350 3147 2350 3391 
Q 2350 3750 2144 3959 
Q 1938 4169 1591 4169 
Q 1259 4169 1040 3983 
Q 822 3797 822 3463 
Q 822 3209 964 3023 
Q 1106 2838 1778 2516 
z
M 1303 2103 
Q 934 1884 790 1632 
Q 647 1381 647 1063 
Q 647 616 897 361 
Q 1147 106 1541 106 
Q 1809 106 2028 231 
Q 2247 356 2355 573 
Q 2463 791 2463 1047 
Q 2463 1416 2205 1622 
Q 1947 1828 1303 2103 
z
" transform="scale(0.015625)"/>
       </defs>
       <use xlink:href="#PalatinoLinotype-Roman-30"/>
       <use xlink:href="#PalatinoLinotype-Roman-2e" x="50"/>
       <use xlink:href="#PalatinoLinotype-Roman-38" x="75"/>
      </g>
     </g>
    </g>
    <g id="text_6">
     <!-- $\mathit{\rho^*}$ -->
     <g transform="translate(180.185312 265.531875) scale(0.14 -0.14)">
      <defs>
       <path id="DejaVuSerif-Italic-3c1" d="M 1134 1825 
L 1069 1497 
Q 953 897 1122 583 
Q 1291 269 1728 269 
Q 2169 269 2464 622 
Q 2759 975 2894 1663 
Q 3031 2378 2869 2703 
Q 2675 3084 2275 3084 
Q 1859 3084 1541 2738 
Q 1250 2422 1134 1825 
z
M 519 -1331 
L -56 -1331 
L 522 1638 
Q 675 2422 1022 2803 
Q 1394 3159 1622 3269 
Q 1928 3413 2331 3413 
Q 3131 3413 3423 2928 
Q 3716 2444 3564 1662 
Q 3413 881 2931 395 
Q 2450 -91 1838 -91 
Q 1453 -91 1220 57 
Q 988 206 881 519 
L 519 -1331 
z
" transform="scale(0.015625)"/>
       <path id="DejaVuSerif-2a" d="M 3097 3866 
L 1875 3297 
L 3097 2719 
L 2859 2350 
L 1772 3028 
L 1813 1838 
L 1388 1838 
L 1428 3028 
L 341 2350 
L 103 2719 
L 1325 3291 
L 103 3866 
L 341 4238 
L 1428 3559 
L 1388 4750 
L 1813 4750 
L 1772 3559 
L 2859 4238 
L 3097 3866 
z
" transform="scale(0.015625)"/>
      </defs>
      <use xlink:href="#DejaVuSerif-Italic-3c1" transform="translate(0 0.7125)"/>
      <use xlink:href="#DejaVuSerif-2a" transform="translate(76.502526 37.046875) scale(0.7)"/>
     </g>
    </g>
   </g>
   <g id="matplotlib.axis_2">
    <g id="ytick_1">
     <g id="line2d_9">
      <defs>
       <path id="m7b2a55816d" d="M 0 0 
L -3.5 0 
" style="stroke: #000000; stroke-width: 0.8"/>
      </defs>
      <g>
       <use xlink:href="#m7b2a55816d" x="49.645313" y="219.845471" style="stroke: #000000; stroke-width: 0.8"/>
      </g>
     </g>
     <g id="text_7">
      <!-- 0.4 -->
      <g transform="translate(25.145313 224.907346) scale(0.14 -0.14)">
       <use xlink:href="#PalatinoLinotype-Roman-30"/>
       <use xlink:href="#PalatinoLinotype-Roman-2e" x="50"/>
       <use xlink:href="#PalatinoLinotype-Roman-34" x="75"/>
      </g>
     </g>
    </g>
    <g id="ytick_2">
     <g id="line2d_10">
      <g>
       <use xlink:href="#m7b2a55816d" x="49.645313" y="186.084559" style="stroke: #000000; stroke-width: 0.8"/>
      </g>
     </g>
     <g id="text_8">
      <!-- 0.5 -->
      <g transform="translate(25.145313 191.146434) scale(0.14 -0.14)">
       <defs>
        <path id="PalatinoLinotype-Roman-35" d="M 409 44 
Q 334 288 100 850 
L 106 891 
L 216 953 
L 253 944 
Q 513 472 577 408 
Q 641 344 869 258 
Q 1097 172 1350 172 
Q 1666 172 1909 309 
Q 2153 447 2272 715 
Q 2391 984 2391 1325 
Q 2391 1659 2273 1901 
Q 2156 2144 1915 2269 
Q 1675 2394 1397 2394 
Q 1222 2394 1080 2347 
Q 938 2300 842 2226 
Q 747 2153 616 2009 
L 488 2047 
L 522 2719 
Q 534 2909 534 3103 
L 534 3659 
Q 534 3909 519 4138 
Q 509 4278 509 4316 
L 550 4347 
Q 1028 4309 1641 4309 
Q 2106 4309 2756 4347 
L 2769 4316 
Q 2747 4163 2747 4031 
Q 2747 3966 2756 3813 
L 2725 3794 
Q 2369 3819 1769 3819 
Q 953 3819 822 3813 
Q 775 3444 756 2513 
Q 1013 2700 1219 2767 
Q 1425 2834 1666 2834 
Q 2006 2834 2318 2678 
Q 2631 2522 2786 2225 
Q 2941 1928 2941 1584 
Q 2941 950 2417 417 
Q 1894 -116 1078 -116 
Q 859 -116 717 -78 
Q 575 -41 409 44 
z
" transform="scale(0.015625)"/>
       </defs>
       <use xlink:href="#PalatinoLinotype-Roman-30"/>
       <use xlink:href="#PalatinoLinotype-Roman-2e" x="50"/>
       <use xlink:href="#PalatinoLinotype-Roman-35" x="75"/>
      </g>
     </g>
    </g>
    <g id="ytick_3">
     <g id="line2d_11">
      <g>
       <use xlink:href="#m7b2a55816d" x="49.645313" y="152.323647" style="stroke: #000000; stroke-width: 0.8"/>
      </g>
     </g>
     <g id="text_9">
      <!-- 0.6 -->
      <g transform="translate(25.145313 157.385522) scale(0.14 -0.14)">
       <use xlink:href="#PalatinoLinotype-Roman-30"/>
       <use xlink:href="#PalatinoLinotype-Roman-2e" x="50"/>
       <use xlink:href="#PalatinoLinotype-Roman-36" x="75"/>
      </g>
     </g>
    </g>
    <g id="ytick_4">
     <g id="line2d_12">
      <g>
       <use xlink:href="#m7b2a55816d" x="49.645313" y="118.562735" style="stroke: #000000; stroke-width: 0.8"/>
      </g>
     </g>
     <g id="text_10">
      <!-- 0.7 -->
      <g transform="translate(25.145313 123.62461) scale(0.14 -0.14)">
       <defs>
        <path id="PalatinoLinotype-Roman-37" d="M 422 -25 
L 356 41 
Q 469 209 822 766 
L 1394 1678 
L 1931 2556 
L 2400 3363 
Q 2550 3625 2638 3788 
L 2606 3819 
L 1638 3819 
Q 1272 3819 987 3806 
Q 703 3794 653 3770 
Q 603 3747 583 3712 
Q 563 3678 538 3475 
L 481 3034 
L 453 3009 
L 322 3009 
L 294 3034 
L 309 3891 
Q 309 4038 294 4344 
L 356 4375 
Q 528 4356 1054 4334 
Q 1581 4313 1759 4313 
Q 2394 4313 3144 4356 
L 3169 4331 
L 3169 4169 
L 2719 3372 
Q 2309 2641 1784 1639 
Q 1259 638 1019 0 
L 988 -25 
Q 809 -9 719 -9 
Q 575 -9 422 -25 
z
" transform="scale(0.015625)"/>
       </defs>
       <use xlink:href="#PalatinoLinotype-Roman-30"/>
       <use xlink:href="#PalatinoLinotype-Roman-2e" x="50"/>
       <use xlink:href="#PalatinoLinotype-Roman-37" x="75"/>
      </g>
     </g>
    </g>
    <g id="ytick_5">
     <g id="line2d_13">
      <g>
       <use xlink:href="#m7b2a55816d" x="49.645313" y="84.801824" style="stroke: #000000; stroke-width: 0.8"/>
      </g>
     </g>
     <g id="text_11">
      <!-- 0.8 -->
      <g transform="translate(25.145313 89.863699) scale(0.14 -0.14)">
       <use xlink:href="#PalatinoLinotype-Roman-30"/>
       <use xlink:href="#PalatinoLinotype-Roman-2e" x="50"/>
       <use xlink:href="#PalatinoLinotype-Roman-38" x="75"/>
      </g>
     </g>
    </g>
    <g id="ytick_6">
     <g id="line2d_14">
      <g>
       <use xlink:href="#m7b2a55816d" x="49.645313" y="51.040912" style="stroke: #000000; stroke-width: 0.8"/>
      </g>
     </g>
     <g id="text_12">
      <!-- 0.9 -->
      <g transform="translate(25.145313 56.102787) scale(0.14 -0.14)">
       <defs>
        <path id="PalatinoLinotype-Roman-39" d="M 416 -25 
L 416 34 
Q 1284 234 1781 798 
Q 2278 1363 2341 2178 
Q 1881 1631 1313 1631 
Q 953 1631 686 1803 
Q 419 1975 291 2250 
Q 163 2525 163 2894 
Q 163 3572 570 3981 
Q 978 4391 1581 4391 
Q 2191 4391 2567 3950 
Q 2944 3509 2944 2681 
Q 2944 2316 2875 1980 
Q 2806 1644 2615 1291 
Q 2425 938 2111 634 
Q 1797 331 1401 129 
Q 1006 -72 622 -125 
L 416 -25 
z
M 703 3097 
Q 703 2825 798 2564 
Q 894 2303 1091 2161 
Q 1288 2019 1553 2019 
Q 1922 2019 2147 2267 
Q 2372 2516 2372 3009 
Q 2372 3522 2150 3848 
Q 1928 4175 1541 4175 
Q 1169 4175 936 3900 
Q 703 3625 703 3097 
z
" transform="scale(0.015625)"/>
       </defs>
       <use xlink:href="#PalatinoLinotype-Roman-30"/>
       <use xlink:href="#PalatinoLinotype-Roman-2e" x="50"/>
       <use xlink:href="#PalatinoLinotype-Roman-39" x="75"/>
      </g>
     </g>
    </g>
    <g id="ytick_7">
     <g id="line2d_15">
      <g>
       <use xlink:href="#m7b2a55816d" x="49.645313" y="17.28" style="stroke: #000000; stroke-width: 0.8"/>
      </g>
     </g>
     <g id="text_13">
      <!-- 1.0 -->
      <g transform="translate(25.145313 22.341875) scale(0.14 -0.14)">
       <defs>
        <path id="PalatinoLinotype-Roman-31" d="M 478 3531 
L 422 3550 
L 391 3806 
L 422 3838 
Q 734 3928 1212 4128 
Q 1691 4328 1897 4434 
L 1978 4403 
Q 1928 3034 1928 2759 
L 1928 1600 
Q 1928 1172 1937 795 
Q 1947 419 1965 351 
Q 1984 284 2029 246 
Q 2075 209 2156 198 
Q 2238 188 2641 166 
L 2663 141 
L 2663 0 
L 2641 -25 
Q 1956 0 1675 0 
Q 1463 0 634 -25 
L 613 0 
L 613 141 
L 638 166 
Q 1106 200 1173 215 
Q 1241 231 1277 270 
Q 1313 309 1334 418 
Q 1356 528 1370 1065 
Q 1384 1603 1384 1616 
L 1384 2847 
Q 1384 3753 1379 3831 
Q 1375 3909 1325 3909 
Q 1313 3909 1291 3903 
Q 1269 3897 1153 3847 
L 844 3709 
Q 650 3625 478 3531 
z
" transform="scale(0.015625)"/>
       </defs>
       <use xlink:href="#PalatinoLinotype-Roman-31"/>
       <use xlink:href="#PalatinoLinotype-Roman-2e" x="50"/>
       <use xlink:href="#PalatinoLinotype-Roman-30" x="75"/>
      </g>
     </g>
    </g>
    <g id="text_14">
     <!-- $T^*$ -->
     <g transform="translate(17.255938 126.41) rotate(-90) scale(0.14 -0.14)">
      <defs>
       <path id="PalatinoLinotype-Italic-54" d="M 863 -25 
L 841 0 
L 853 138 
L 878 159 
Q 1253 188 1320 214 
Q 1388 241 1411 272 
Q 1434 303 1462 401 
Q 1491 500 1622 1156 
Q 1753 1813 1890 2648 
Q 2028 3484 2097 4116 
Q 1066 4116 933 4066 
Q 800 4016 669 3391 
L 641 3366 
L 516 3366 
L 491 3391 
Q 588 4184 594 4384 
L 625 4416 
L 853 4400 
Q 903 4397 1066 4394 
L 2372 4369 
L 3944 4397 
Q 3972 4397 4156 4416 
L 4184 4384 
Q 4103 4078 4022 3394 
L 3991 3366 
L 3866 3366 
L 3841 3394 
Q 3844 3447 3850 3775 
Q 3847 3981 3797 4048 
Q 3747 4116 2631 4116 
Q 2600 3981 2497 3397 
L 2291 2238 
Q 2253 2028 2133 1262 
Q 2013 497 2013 344 
Q 2013 259 2075 218 
Q 2138 178 2597 163 
L 2622 134 
L 2609 0 
L 2581 -25 
Q 2056 0 1734 0 
Q 1266 0 863 -25 
z
" transform="scale(0.015625)"/>
       <path id="PalatinoLinotype-Italic-2a" d="M 669 2653 
Q 625 2781 506 3013 
L 531 3056 
Q 613 3094 873 3201 
Q 1134 3309 1341 3409 
Q 1203 3481 915 3620 
Q 628 3759 522 3803 
L 497 3866 
Q 500 3869 597 4041 
L 703 4222 
L 769 4219 
Q 1081 3872 1428 3553 
Q 1481 3847 1509 4048 
Q 1538 4250 1569 4450 
L 1625 4484 
Q 1828 4419 2019 4375 
L 2028 4319 
Q 1653 3650 1578 3491 
Q 1666 3500 2466 3641 
L 2503 3619 
Q 2509 3503 2553 3247 
L 2506 3213 
Q 1900 3303 1588 3325 
Q 1694 3100 1800 2922 
Q 1994 2591 2000 2566 
L 1988 2528 
Q 1669 2375 1613 2334 
L 1566 2369 
Q 1497 2875 1425 3266 
Q 1191 3063 931 2819 
L 741 2644 
L 669 2653 
z
" transform="scale(0.015625)"/>
      </defs>
      <use xlink:href="#PalatinoLinotype-Italic-54" transform="translate(0 0.870313)"/>
      <use xlink:href="#PalatinoLinotype-Italic-2a" transform="translate(75.235352 33.95625) scale(0.7)"/>
     </g>
    </g>
   </g>
   <g id="patch_3">
    <path d="M 49.645313 228.96 
L 49.645313 7.2 
" style="fill: none; stroke: #000000; stroke-width: 0.8; stroke-linejoin: miter; stroke-linecap: square"/>
   </g>
   <g id="patch_4">
    <path d="M 328.645312 228.96 
L 328.645312 7.2 
" style="fill: none; stroke: #000000; stroke-width: 0.8; stroke-linejoin: miter; stroke-linecap: square"/>
   </g>
   <g id="patch_5">
    <path d="M 49.645313 228.96 
L 328.645313 228.96 
" style="fill: none; stroke: #000000; stroke-width: 0.8; stroke-linejoin: miter; stroke-linecap: square"/>
   </g>
   <g id="patch_6">
    <path d="M 49.645313 7.2 
L 328.645313 7.2 
" style="fill: none; stroke: #000000; stroke-width: 0.8; stroke-linejoin: miter; stroke-linecap: square"/>
   </g>
  </g>
 </g>
 <defs>
  <clipPath id="p434b06ff1c">
   <rect x="49.645313" y="7.2" width="279" height="221.76"/>
  </clipPath>
 </defs>
</svg>
